<svg width="327" height="332" viewBox="0 0 327 332" fill="none" xmlns="http://www.w3.org/2000/svg">
<path d="M169.901 292.801C169.957 292.633 169.901 292.521 169.732 292.465C169.901 292.521 169.915 292.479 169.775 292.339C169.747 292.142 169.761 291.96 169.817 291.792L169.186 291.581C169.494 291.497 169.705 291.427 169.817 291.371C169.957 291.231 170.28 291.245 170.784 291.414C171.485 291.834 172.172 292.157 172.845 292.382C173.63 292.55 174.457 292.873 175.326 293.35C175.326 293.35 175.354 293.266 175.41 293.097C175.943 293.462 176.447 293.771 176.924 294.023C177.401 294.276 178.172 294.486 179.237 294.655C179.293 294.767 179.293 294.907 179.237 295.075C179.209 295.159 179.279 295.23 179.447 295.286C180.541 295.37 181.508 295.693 182.349 296.254C183.19 296.815 184.073 297.25 184.998 297.559C186.512 298.064 188.222 298.681 190.129 299.411C192.119 300.168 193.871 301.08 195.385 302.146C196.03 302.174 196.661 302.385 197.277 302.778C197.894 303.17 198.651 303.423 199.548 303.535C199.52 303.62 199.492 303.704 199.464 303.788C199.52 303.9 199.534 303.998 199.506 304.082C199.142 304.054 198.973 303.998 199.001 303.914C199.142 303.774 199.03 303.689 198.665 303.661C198.693 303.858 198.567 303.956 198.286 303.956C198.118 303.899 198.132 303.998 198.328 304.25C198.861 304.334 199.24 304.461 199.464 304.629C199.8 304.741 200.123 304.895 200.431 305.092C200.824 305.316 200.964 305.316 200.852 305.092C200.74 304.868 200.88 304.868 201.272 305.092C201.553 305.373 201.973 305.653 202.534 305.934C203.122 306.13 203.599 306.383 203.963 306.691C203.851 306.467 203.907 306.439 204.132 306.607C204.384 306.691 204.608 306.719 204.805 306.691C204.917 306.916 204.833 307.028 204.552 307.028C204.384 306.972 204.468 307 204.805 307.112C205.365 307.112 205.912 307.295 206.445 307.659C206.977 308.024 207.482 308.192 207.959 308.164C207.987 308.08 207.945 308.066 207.832 308.122C207.748 308.094 207.734 307.996 207.79 307.828C207.959 307.884 208.211 307.968 208.547 308.08C208.996 308.137 209.15 308.235 209.01 308.375C209.122 308.599 209.01 308.655 208.673 308.543C208.365 308.347 208.267 308.361 208.379 308.585C208.407 308.781 208.603 308.894 208.968 308.922C209.332 308.95 209.641 309.006 209.893 309.09C209.837 309.259 209.669 309.343 209.388 309.342C209.192 309.37 209.108 309.483 209.136 309.679C208.211 309.37 207.496 309.132 206.991 308.963C206.599 308.739 206.094 308.43 205.477 308.037C205.309 307.981 205.211 307.995 205.183 308.079C205.155 308.164 205.057 308.178 204.888 308.121C204.692 307.869 204.342 307.659 203.837 307.49C203.445 307.266 202.996 307.069 202.491 306.901C202.015 306.648 201.566 306.452 201.146 306.312C200.753 306.087 200.459 305.849 200.263 305.596C199.982 305.596 199.632 305.526 199.211 305.386C199.239 305.582 199.155 305.694 198.959 305.722C198.791 305.666 198.763 305.75 198.875 305.975C199.575 306.395 200.318 306.83 201.103 307.279C201.972 307.756 202.757 308.065 203.458 308.205C203.374 308.177 203.36 308.079 203.416 307.911C204.061 307.939 204.65 308.135 205.183 308.5C205.743 308.781 206.29 309.103 206.823 309.468C206.879 309.58 206.738 309.58 206.402 309.468C206.094 309.271 206.038 309.299 206.234 309.552C206.57 309.944 207.117 310.267 207.874 310.52C208.631 310.772 209.121 311.123 209.345 311.572C208.364 311.431 207.453 311.22 206.612 310.94C205.799 310.575 204.958 310.294 204.089 310.098C204.229 309.677 204.089 309.397 203.668 309.257C202.967 309.116 202.337 308.906 201.776 308.625C201.243 308.26 200.739 308.092 200.262 308.12C199.897 307.811 199.309 307.475 198.496 307.11C197.767 306.773 196.982 306.605 196.141 306.605C195.075 305.875 193.898 305.202 192.608 304.585C191.319 303.967 189.931 303.364 188.445 302.775C187.071 302.13 185.642 301.512 184.156 300.923C182.754 300.362 181.408 299.773 180.119 299.155C180.063 299.324 179.852 299.394 179.488 299.365C179.123 299.337 178.871 299.253 178.731 299.113C179.011 299.113 179.109 299.099 179.025 299.071C179.025 299.071 178.941 299.043 178.773 298.987C178.717 298.874 178.605 298.79 178.437 298.734C178.381 298.622 178.451 298.552 178.647 298.524C177.525 298.243 176.39 297.864 175.241 297.387C174.119 296.826 172.886 296.321 171.54 295.872C171.568 296.068 171.386 296.194 170.993 296.25L170.909 296.503C172.142 296.727 172.885 297.022 173.138 297.387C172.801 297.274 172.437 297.246 172.044 297.302C172.016 297.106 171.75 296.924 171.245 296.755C170.769 296.503 170.685 296.334 170.993 296.25C170.797 296.278 170.614 296.264 170.446 296.208C170.362 296.18 170.264 296.194 170.152 296.25C170.04 296.026 169.703 295.914 169.143 295.913C168.694 295.857 168.372 295.843 168.175 295.871C168.063 295.647 167.951 295.563 167.839 295.619C167.755 295.591 167.867 295.534 168.175 295.45C167.727 295.394 167.516 295.324 167.545 295.24C167.601 295.072 167.503 294.946 167.25 294.861L165.862 294.819C165.498 294.791 165.288 294.721 165.232 294.608C165.204 294.412 164.965 294.286 164.517 294.23C164.405 294.005 164.433 293.921 164.601 293.977C164.769 294.033 164.909 294.033 165.021 293.977C164.068 293.753 163.213 293.514 162.456 293.262C161.811 292.953 161.209 292.799 160.648 292.798C160.788 292.658 160.69 292.532 160.353 292.42C160.129 292.252 159.947 292.097 159.807 291.957C160.003 291.929 160.171 291.985 160.311 292.125C160.452 292.266 160.55 292.252 160.606 292.083C160.129 291.831 159.569 291.55 158.924 291.242C158.363 290.961 157.732 290.751 157.031 290.61L156.947 290.863C156.246 290.722 155.517 290.526 154.76 290.273C154.116 289.964 153.765 289.754 153.709 289.642C154.046 289.754 154.41 289.923 154.802 290.147C155.307 290.315 155.672 290.343 155.896 290.231C155.139 289.979 154.298 289.698 153.373 289.389C152.476 288.997 151.733 288.702 151.144 288.506C151.256 288.73 151.494 288.856 151.859 288.884C152.307 288.94 152.546 289.067 152.574 289.263C151.424 289.066 150.134 288.73 148.705 288.252C147.303 287.691 146.125 287.158 145.172 286.653C145.901 286.709 146.49 286.906 146.938 287.242C147.415 287.495 147.906 287.565 148.41 287.453C146.448 286.892 144.556 286.12 142.733 285.138C140.995 284.184 139.229 283.735 137.434 283.791C137.827 284.015 138.332 284.184 138.948 284.296C139.593 284.324 139.958 284.492 140.042 284.801C137.574 284.071 135.262 283.299 133.103 282.486C131.028 281.7 128.911 280.9 126.753 280.086C127.342 280.002 127.944 280.157 128.561 280.549C129.29 280.886 130.103 281.111 131 281.223C130.664 281.111 130.384 280.83 130.159 280.382C129.15 280.325 128.323 280.143 127.678 279.834C127.145 279.47 126.388 279.217 125.407 279.076C125.435 279.273 125.617 279.427 125.954 279.539C126.374 279.68 126.641 279.862 126.753 280.086C124.902 279.469 123.094 278.865 121.328 278.276C119.646 277.715 117.893 277.224 116.071 276.802C115.538 276.438 114.851 276.115 114.01 275.834C113.281 275.498 112.553 275.161 111.824 274.824C111.684 274.684 111.655 274.628 111.74 274.656C111.908 274.712 112.048 274.712 112.16 274.656C111.88 274.656 111.585 274.558 111.277 274.362C110.969 274.165 110.702 274.123 110.478 274.235C110.842 274.263 110.955 274.347 110.814 274.488C110.702 274.544 110.604 274.558 110.52 274.53C110.408 274.305 110.24 274.249 110.015 274.361C109.791 274.473 109.44 274.403 108.964 274.151L108.123 273.309C107.478 273.561 106.791 273.519 106.062 273.182C105.445 272.79 104.618 272.467 103.581 272.214C103.441 272.074 103.469 271.99 103.665 271.962C103.946 271.962 103.918 271.906 103.581 271.794C102.992 271.597 102.81 271.723 103.034 272.172C101.801 271.667 100.371 271.19 98.7448 270.741C97.2309 270.235 95.6608 269.758 94.0347 269.309C92.4367 268.776 90.8807 268.257 89.3667 267.752C87.9369 267.274 86.6192 266.741 85.4137 266.152C84.881 266.068 84.3483 265.984 83.8156 265.899C83.2829 265.815 82.7642 265.689 82.2596 265.52C82.2035 265.408 82.1895 265.31 82.2176 265.226L81.8391 265.1L81.7549 265.352C79.0073 264.622 76.2458 263.794 73.4702 262.868C70.7788 261.97 67.7929 261.114 64.5126 260.3C64.4565 260.468 64.4564 260.608 64.5125 260.72C65.3535 261.001 65.8021 261.197 65.8581 261.309C65.4376 261.169 65.2133 261.141 65.1852 261.225C65.1572 261.309 65.2272 261.379 65.3955 261.435C63.7413 261.07 62.2133 260.747 60.8114 260.467C59.5217 260.13 58.3022 259.723 57.1527 259.246C53.8163 258.6 50.4098 257.884 46.9332 257.098C43.4566 256.311 39.966 255.567 36.4614 254.865C32.9568 254.163 29.5082 253.573 26.1156 253.096C22.7511 252.534 19.5408 252.21 16.4846 252.125C15.1106 252.321 13.5264 252.447 11.7319 252.502C10.0495 252.502 8.19902 252.305 6.18034 251.912C6.06817 251.968 5.99805 252.038 5.96999 252.122C5.94192 252.206 5.74564 252.234 5.38115 252.206C4.06348 251.673 3.2085 251.014 2.8162 250.228C2.50801 249.471 2.38207 248.728 2.43837 247.999C2.52274 247.186 2.73327 246.415 3.06997 245.686C3.43472 244.873 3.65924 244.2 3.74353 243.668C4.13609 243.612 4.51466 243.458 4.87924 243.205C5.24383 242.953 5.32802 242.701 5.13183 242.448C5.15981 242.645 4.99155 242.729 4.62705 242.701C4.37473 242.616 4.08035 242.518 3.74392 242.406C3.54773 242.153 3.61784 242.083 3.95428 242.196C4.31877 242.224 4.41696 242.07 4.24883 241.733C4.66937 241.873 4.99181 241.888 5.21616 241.775C5.52461 241.691 5.86104 241.804 6.22545 242.112C5.97321 241.748 6.07144 241.453 6.52013 241.229L7.57179 240.599C7.59985 240.514 7.43164 240.458 7.06714 240.43C6.70264 240.402 6.63257 240.332 6.85691 240.22C8.5674 239.856 10.3759 239.758 12.2825 239.927C12.3946 240.151 12.3245 240.222 12.0722 240.137C11.904 240.081 11.8338 240.151 11.8618 240.348C11.5534 240.432 11.4272 240.389 11.4833 240.221C11.5395 240.053 11.3853 239.955 11.0208 239.927C10.9646 240.095 10.7964 240.179 10.516 240.179C10.2356 240.179 10.0673 240.263 10.0112 240.431C10.9645 240.656 11.8337 240.712 12.6188 240.6C13.432 240.404 14.5394 240.587 15.9412 241.148C15.2683 241.204 14.5112 241.232 13.67 241.231C12.941 241.175 12.3802 241.315 11.9876 241.651C13.1372 241.568 14.4831 241.596 16.0251 241.737C17.5672 241.877 19.1374 242.074 20.7355 242.327C22.4458 242.524 24.058 242.735 25.572 242.959C27.1701 243.212 28.6001 243.409 29.8618 243.55C29.6094 243.465 29.3431 243.423 29.0627 243.423C28.8945 243.367 28.6842 243.297 28.4319 243.213C28.46 243.129 28.5721 243.072 28.7684 243.045C29.0488 243.045 29.3152 243.087 29.5675 243.171C29.9039 243.283 30.1843 243.423 30.4085 243.592C30.6608 243.676 30.8291 243.732 30.9132 243.76C31.0534 243.62 31.0254 243.564 30.8291 243.592C30.6609 243.536 30.5487 243.452 30.4927 243.339C32.1749 243.62 33.8852 243.957 35.6235 244.35C37.474 244.688 39.3945 245.095 41.3851 245.572C41.5533 245.628 41.6795 245.67 41.7636 245.698C41.9318 245.754 41.9178 245.796 41.7215 245.824L37.9786 244.856L37.8944 245.108C37.586 244.912 37.0253 244.771 36.2122 244.687C35.4272 244.519 34.6842 244.364 33.9833 244.224C37.5719 245.234 40.8663 246.006 43.8662 246.54C46.9503 247.102 49.8942 247.944 52.6977 249.066C52.8099 249.01 53.0062 248.982 53.2865 248.982C53.651 249.011 54.0015 249.081 54.3379 249.193C54.7024 249.221 54.9548 249.305 55.0949 249.446C55.3472 249.53 55.3753 249.586 55.179 249.614C55.5995 249.754 55.95 249.824 56.2304 249.824C56.5108 249.825 56.8753 249.853 57.3239 249.909C57.2677 250.077 57.3238 250.189 57.492 250.245C57.6603 250.021 57.8425 250.035 58.0387 250.288C58.263 250.456 58.5013 250.442 58.7537 250.246C59.2583 250.695 59.861 250.989 60.562 251.13C61.347 251.298 62.062 251.396 62.7068 251.425C63.0432 251.817 63.8562 252.182 65.1459 252.519C66.4356 252.856 67.3187 253.01 67.7954 252.982C67.8794 253.291 67.9916 253.375 68.1318 253.235C68.3561 253.123 68.6786 253.137 69.0991 253.277C69.3234 253.446 69.6738 253.656 70.1504 253.908C70.7391 254.105 71.3279 254.301 71.9167 254.498C72.5054 254.694 73.0661 254.835 73.5989 254.919C74.1316 255.003 74.5522 255.003 74.8606 254.919C76.4306 255.537 78.1828 256.168 80.1173 256.814C82.1359 257.487 84.1965 258.175 86.2992 258.876C88.43 259.494 90.5467 260.153 92.6494 260.855C94.7521 261.557 96.7426 262.314 98.621 263.128C94.3875 261.809 89.8597 260.392 85.0375 258.876C80.2153 257.36 75.2529 255.845 70.1503 254.329C65.0477 252.813 59.7908 251.34 54.3798 249.908C49.0528 248.504 43.7258 247.241 38.3988 246.118C38.3427 246.286 38.3567 246.384 38.4408 246.412C38.609 246.468 38.609 246.468 38.4408 246.412C38.3006 246.272 37.9081 246.188 37.2632 246.159C36.7305 246.075 36.4081 245.921 36.296 245.697C35.539 245.724 34.6698 245.668 33.6885 245.527C32.8193 245.331 31.9081 245.12 30.9549 244.896C30.0016 244.671 29.0764 244.503 28.1792 244.39C27.31 244.194 26.581 244.137 25.9922 244.221C25.3193 243.997 24.7165 243.842 24.1838 243.758C23.6511 243.674 23.1044 243.632 22.5436 243.631C22.7398 243.884 23.1463 244.066 23.7631 244.179C24.464 244.319 24.8426 244.305 24.8987 244.137C25.88 244.277 27.3099 244.614 29.1883 245.148C31.0948 245.597 32.5668 245.808 33.6043 245.78C34.1369 246.144 34.7677 246.355 35.4967 246.411C36.3098 246.496 36.9547 246.524 37.4313 246.496C38.02 246.973 38.4265 247.155 38.6509 247.043C38.8752 246.931 39.2537 247.057 39.7863 247.422C40.0668 247.142 40.6135 247.184 41.4266 247.549C42.3517 247.857 43.0106 248.124 43.403 248.348C43.5151 248.573 43.459 248.741 43.2347 248.853C43.3749 248.713 43.5151 248.713 43.6552 248.853C43.9076 248.937 44.0477 249.078 44.0757 249.274C43.6271 249.218 43.2345 249.274 42.898 249.442C43.3746 249.694 43.5989 249.722 43.5709 249.526C43.5429 249.33 43.7392 249.302 44.1598 249.442C44.2438 249.751 44.2718 249.807 44.2438 249.61C44.2999 249.442 44.4401 249.442 44.6644 249.611C44.8046 249.751 45.1129 249.947 45.5895 250.2C46.0941 250.368 46.4586 250.396 46.683 250.284C46.2345 249.948 45.9822 249.723 45.9261 249.611C45.8982 249.415 45.8422 249.162 45.7582 248.854C46.9918 249.079 47.9731 249.219 48.7021 249.275C49.4311 249.332 50.2722 249.612 51.2253 250.117C51.2532 250.594 51.4915 250.86 51.9401 250.917C52.0803 250.776 52.0243 250.664 51.772 250.58C51.5196 250.496 51.4215 250.37 51.4777 250.201C53.244 250.51 54.6739 250.847 55.7673 251.212C56.8607 251.577 58.2765 251.956 60.0148 252.349C59.8465 252.573 59.8885 252.728 60.1409 252.812C60.5054 252.84 60.7577 252.924 60.8978 253.064C60.7297 252.728 60.8559 252.63 61.2764 252.77C61.3885 252.994 61.4866 253.121 61.5707 253.149C61.5988 253.065 61.725 253.107 61.9492 253.275C62.2857 253.387 62.3978 253.331 62.2857 253.107C62.4819 253.359 62.8043 253.514 63.2529 253.57C63.7015 253.626 64.1501 253.682 64.5987 253.738C65.1315 253.823 65.6081 253.935 66.0286 254.075C66.5613 254.16 66.9678 254.342 67.2481 254.623C67.921 254.847 68.3276 254.889 68.4678 254.749C68.608 254.609 68.9165 254.525 69.3932 254.497C69.337 254.665 69.4772 254.805 69.8136 254.918C69.8697 255.03 69.8136 255.058 69.6454 255.002C69.5612 254.974 69.4631 254.988 69.3509 255.044C69.7995 255.1 70.0939 255.198 70.2341 255.338C70.4864 255.423 70.7247 255.549 70.9489 255.717C71.0051 255.549 71.4537 255.605 72.2948 255.886C72.4349 256.026 72.4769 256.18 72.4208 256.349C72.4768 256.461 72.6871 256.531 73.0516 256.559C73.1358 256.307 73.5003 256.335 74.1451 256.643C74.8179 256.868 75.2806 256.882 75.533 256.686C75.6731 256.826 75.7292 256.938 75.7011 257.022C75.7572 257.135 75.8693 257.219 76.0375 257.275C76.2618 257.163 76.6684 257.205 77.2572 257.401C77.4813 257.85 77.8037 258.145 78.2242 258.285C78.1962 258.089 78.0841 258.005 77.8878 258.033C77.8037 258.004 77.8738 257.934 78.0982 257.822C78.8832 257.991 79.8224 258.257 80.9159 258.622C82.1214 258.931 82.9064 259.38 83.2707 259.969C83.0184 259.885 82.71 259.829 82.3455 259.8C82.009 259.688 81.8548 259.73 81.8828 259.926C82.3874 260.095 82.7799 260.319 83.0602 260.6C83.3686 260.796 83.7611 260.88 84.2378 260.852C84.0975 260.993 84.1816 261.161 84.49 261.357C84.8264 261.469 84.9526 261.512 84.8684 261.483C84.6722 261.511 84.4058 261.469 84.0694 261.357C83.8171 261.273 83.7469 261.343 83.859 261.567C85.5973 261.96 86.9711 262.325 87.9804 262.662C88.9897 262.999 90.1111 263.42 91.3447 263.925C91.3727 263.841 91.3587 263.743 91.3027 263.63C91.2466 263.518 91.3868 263.518 91.7233 263.631C92.1718 263.967 92.5503 264.093 92.8587 264.009C93.1672 263.925 93.5036 264.038 93.868 264.346C93.84 264.15 93.8681 264.066 93.9522 264.094C94.1204 264.15 94.1485 264.066 94.0364 263.842C93.3074 263.785 92.943 263.617 92.9431 263.337C93.0553 263 92.7469 262.804 92.018 262.747C92.0741 262.579 92.0601 262.481 91.976 262.453C92.0041 262.369 92.0462 262.243 92.1023 262.075C93.0555 262.299 93.9387 262.594 94.7517 262.959C95.5928 263.239 96.4759 263.534 97.4011 263.843C97.5132 264.067 97.5972 264.375 97.6531 264.768C97.8213 265.105 97.8352 265.343 97.695 265.483C97.6389 265.371 97.5548 265.343 97.4427 265.399C97.4427 265.399 97.4566 265.497 97.4846 265.693L96.4753 265.356C96.3632 265.132 96.2932 264.922 96.2652 264.726C96.2653 264.445 96.013 264.221 95.5084 264.052C95.256 264.249 94.9335 264.375 94.5409 264.431C94.1484 264.487 93.7278 264.486 93.2792 264.43C93.2511 264.514 93.2651 264.612 93.3211 264.725C93.7977 264.977 94.1342 265.089 94.3304 265.061C94.6389 264.977 94.7791 264.837 94.7512 264.641C95.3679 265.034 96.1528 265.483 97.106 265.988C98.1713 266.436 99.0966 266.605 99.8817 266.493C100.022 266.353 99.9519 266.283 99.6715 266.283C99.4191 266.199 99.321 266.072 99.3772 265.904C100.05 265.848 100.583 266.073 100.975 266.578C100.527 266.521 100.218 266.605 100.05 266.83C100.779 266.886 101.199 267.026 101.311 267.251C101.424 267.475 101.718 267.573 102.195 267.545C102.307 267.77 102.545 268.036 102.909 268.345C103.302 268.569 103.75 268.625 104.255 268.513C104.227 268.317 104.073 268.219 103.793 268.219C103.624 268.163 103.526 268.036 103.498 267.84C103.919 267.98 104.171 268.065 104.255 268.093C104.367 268.037 104.536 267.953 104.76 267.84C105.209 268.177 105.559 268.528 105.811 268.892C106.176 269.201 106.694 269.467 107.367 269.692C107.311 269.58 107.241 269.51 107.157 269.482C107.073 269.453 107.059 269.355 107.115 269.187C107.535 269.327 107.76 269.356 107.788 269.271C107.9 269.215 108.11 269.286 108.419 269.482C108.839 269.622 109.19 269.833 109.47 270.113C109.358 269.889 109.428 269.819 109.68 269.903C110.017 270.015 110.241 270.043 110.353 269.987C110.381 270.183 110.521 270.324 110.774 270.408C111.11 270.52 111.446 270.632 111.783 270.745C112.147 270.773 112.498 270.843 112.834 270.955C113.171 271.068 113.409 271.194 113.549 271.334C113.773 271.222 114.026 271.306 114.306 271.587C114.699 271.811 115.021 271.825 115.273 271.629C115.301 271.825 115.442 271.966 115.694 272.05C115.946 272.134 116.044 272.26 115.988 272.428C115.007 272.288 114.11 272.035 113.297 271.67C112.596 271.25 111.923 271.025 111.278 270.997C112.904 271.726 114.768 272.442 116.871 273.144C119.002 273.761 121.006 274.477 122.885 275.29C122.857 275.375 122.829 275.459 122.801 275.543C122.885 275.571 122.913 275.627 122.885 275.711C122.688 275.739 122.464 275.711 122.212 275.627C121.988 275.458 121.931 275.486 122.044 275.711C122.184 275.851 122.548 276.019 123.137 276.216C123.754 276.328 124.02 276.37 123.936 276.342C123.824 276.118 123.656 275.922 123.431 275.753C123.291 275.613 123.165 275.431 123.053 275.206C123.39 275.319 123.628 275.445 123.768 275.585C123.936 275.641 123.978 275.515 123.894 275.207C124.343 275.543 124.903 275.824 125.576 276.048C126.249 276.273 126.922 276.497 127.595 276.722C127.791 276.974 127.791 277.114 127.595 277.142C127.483 277.199 127.637 277.297 128.057 277.437C128.562 277.325 128.744 277.059 128.604 276.638C127.175 276.161 125.703 275.67 124.189 275.165C122.759 274.688 121.217 274.126 119.563 273.481C119.619 273.313 119.773 273.271 120.025 273.355C120.362 273.467 120.642 273.467 120.867 273.355C120.923 273.467 120.895 273.551 120.782 273.607C120.698 273.579 120.74 273.593 120.909 273.65C121.469 273.93 121.806 274.042 121.918 273.986C122.058 273.846 122.268 273.776 122.549 273.776C123.502 274.562 124.749 275.165 126.291 275.586C127.918 276.035 129.404 276.484 130.749 276.933L130.707 277.059L131.086 277.186L131.128 277.059C131.716 277.256 132.165 277.452 132.473 277.649C132.305 277.312 132.431 277.214 132.852 277.354C132.964 277.579 133.146 277.733 133.399 277.817C133.651 277.901 133.833 278.056 133.945 278.28C133.497 278.224 133.118 278.238 132.81 278.322C132.529 278.322 132.221 278.265 131.884 278.153C132.137 278.237 132.249 278.181 132.221 277.985C131.744 278.013 131.534 277.943 131.59 277.775C131.758 277.55 131.618 277.41 131.17 277.354C130.749 277.494 130.427 277.48 130.202 277.312C129.978 277.143 129.586 277.059 129.025 277.059C129.221 277.311 129.123 277.465 128.73 277.521C128.422 277.605 128.422 277.746 128.73 277.942C129.123 277.886 129.333 277.816 129.361 277.732C129.389 277.648 129.585 277.76 129.95 278.068C129.922 277.872 129.936 277.83 129.992 277.942C130.048 278.054 130.16 278.139 130.328 278.195C130.384 278.027 130.37 277.928 130.286 277.9C130.735 277.957 131.155 278.097 131.548 278.321C131.968 278.462 132.333 278.49 132.641 278.406C132.557 278.658 132.781 278.826 133.314 278.911C133.931 279.023 134.45 279.149 134.87 279.29C134.842 279.374 134.87 279.43 134.954 279.458C135.038 279.486 135.094 279.598 135.122 279.794C134.534 279.598 134.225 279.542 134.197 279.626C134.534 279.738 134.772 279.864 134.912 280.005C135.052 280.145 135.361 280.201 135.837 280.173C135.725 279.949 135.683 279.795 135.711 279.711C136.328 279.823 136.791 279.977 137.099 280.174C137.492 280.398 137.87 280.665 138.234 280.973C139.019 280.861 139.524 280.749 139.749 280.637C139.889 280.777 140.029 280.918 140.169 281.058C140.393 281.226 140.618 281.394 140.842 281.563C141.178 281.675 141.248 281.605 141.052 281.352C140.856 281.1 140.912 281.072 141.22 281.268C141.361 281.409 141.515 281.507 141.683 281.563C141.851 281.619 141.949 281.745 141.977 281.942C141.473 281.773 141.234 281.787 141.262 281.983C141.739 281.956 141.991 282.04 142.019 282.236C142.075 282.348 142.286 282.418 142.65 282.446C142.538 282.222 142.65 282.166 142.987 282.278C143.351 282.307 143.561 282.236 143.617 282.068C143.982 282.096 144.276 282.195 144.501 282.363C144.725 282.531 144.949 282.559 145.174 282.447C144.977 282.195 144.557 282.055 143.912 282.026C143.295 281.914 142.804 281.704 142.44 281.395C142.552 281.619 142.524 281.703 142.356 281.647C142.188 281.591 142.047 281.591 141.935 281.647C142.019 281.395 141.795 281.227 141.263 281.142C140.758 280.974 140.407 280.763 140.211 280.511C140.099 280.287 140.071 280.09 140.127 279.922C140.464 280.034 140.688 280.203 140.8 280.427C140.94 280.567 141.179 280.694 141.515 280.806C141.711 280.778 141.823 280.722 141.851 280.638C141.964 280.582 142.23 280.624 142.651 280.764C143.015 280.792 143.043 280.848 142.735 280.932C142.426 281.016 142.496 281.087 142.945 281.143C143.197 280.947 143.842 281.115 144.879 281.648C145.945 282.097 146.519 282.476 146.603 282.784C146.071 282.7 145.776 282.742 145.72 282.91C145.692 282.994 145.482 283.064 145.089 283.12C145.482 283.345 145.832 283.555 146.14 283.751C146.533 283.976 146.981 284.172 147.486 284.341C147.626 284.2 147.668 284.074 147.612 283.962C147.584 283.766 147.753 283.682 148.117 283.71C148.482 284.018 148.832 284.229 149.168 284.341C149.617 284.397 150.122 284.566 150.682 284.846C150.794 285.071 150.879 285.239 150.935 285.351C151.019 285.379 150.949 285.449 150.724 285.561C151.201 285.533 151.593 285.618 151.902 285.814C152.238 285.926 152.561 286.081 152.869 286.277C152.925 286.109 153.107 286.123 153.416 286.319C153.836 286.46 153.991 286.418 153.878 286.193C154.243 286.221 154.495 286.306 154.635 286.446C154.86 286.614 155.196 286.726 155.645 286.783C155.701 286.895 155.715 286.993 155.687 287.077C155.659 287.161 155.729 287.231 155.897 287.287C156.093 287.259 156.317 287.287 156.57 287.372C156.906 287.484 157.004 287.47 156.864 287.33C157.117 287.414 157.201 287.582 157.116 287.834C157.537 287.975 157.929 288.059 158.294 288.087C158.658 288.115 158.953 288.214 159.177 288.382C158.757 288.242 158.602 288.284 158.714 288.508C159.696 288.648 160.383 288.831 160.775 289.055C161.252 289.308 161.84 289.504 162.541 289.645C162.682 289.224 162.542 288.944 162.121 288.803C161.785 288.691 161.42 288.523 161.028 288.298C161.448 288.439 161.588 288.439 161.448 288.298C161.336 288.074 161.462 287.976 161.827 288.004C162.444 288.397 162.724 288.677 162.668 288.846C162.78 289.07 162.766 289.252 162.626 289.392C162.569 289.561 162.555 289.743 162.583 289.939C162.695 289.883 162.934 289.869 163.298 289.897C163.747 289.953 163.985 290.08 164.013 290.276C163.929 290.248 163.873 290.276 163.845 290.36C163.845 290.36 163.929 290.388 164.097 290.444C164.322 290.332 164.35 290.248 164.181 290.192C164.013 290.136 163.957 290.024 164.013 289.855C163.929 289.827 163.789 289.827 163.593 289.855C163.396 289.883 163.27 289.841 163.214 289.729C163.439 289.617 163.621 289.631 163.761 289.771C164.013 289.855 164.308 289.954 164.644 290.066C164.728 289.814 164.798 289.743 164.854 289.856C164.911 289.968 165.177 290.01 165.654 289.982C165.766 290.206 165.639 290.305 165.275 290.276C164.91 290.248 165.009 290.374 165.569 290.655C165.289 290.655 165.022 290.613 164.77 290.529C164.518 290.444 164.364 290.486 164.307 290.655C164.728 290.795 165.149 290.935 165.569 291.076C165.99 291.216 166.13 291.356 165.99 291.496C166.186 291.468 166.396 291.538 166.62 291.707C166.957 291.819 167.111 291.777 167.083 291.581C166.494 291.384 166.27 291.216 166.41 291.076C166.551 290.936 166.733 290.81 166.957 290.697C166.396 290.697 166.158 290.571 166.242 290.319C166.411 290.094 166.439 289.87 166.327 289.646C167.028 289.786 167.434 289.969 167.546 290.193C167.658 290.417 168.037 290.544 168.682 290.572C168.934 290.656 168.976 290.81 168.808 291.035C168.751 291.203 168.878 291.385 169.186 291.581L168.934 291.497C168.765 291.721 168.807 291.876 169.06 291.96C169.396 292.072 169.536 292.212 169.48 292.381C169.228 292.296 169.074 292.198 169.018 292.086C168.821 292.114 168.779 292.24 168.891 292.465C169.172 292.465 169.34 292.521 169.396 292.633C169.452 292.745 169.62 292.801 169.901 292.801ZM80.5788 260.473C80.9714 260.417 81.1676 260.389 81.1676 260.389C81.2518 260.417 81.49 260.543 81.8825 260.768C82.0228 260.627 81.9247 260.501 81.5882 260.389C81.3359 260.305 81.2939 260.151 81.4622 259.926C81.1818 259.926 80.9435 259.94 80.7472 259.968C80.5509 259.996 80.2005 259.926 79.6958 259.758C79.7519 259.589 79.752 259.449 79.6959 259.337C79.724 259.253 79.9483 259.281 80.3688 259.421C80.2568 259.197 79.8783 259.071 79.2334 259.042C78.7007 258.958 78.5746 258.776 78.855 258.495C78.0419 258.411 77.3971 258.243 76.9205 257.99C76.4439 257.738 75.715 257.541 74.7337 257.401C74.6215 257.457 74.5654 257.625 74.5653 257.905C74.2008 257.877 73.8363 257.849 73.4718 257.821C73.1073 257.793 72.9812 257.61 73.0934 257.274C72.5888 257.106 72.1682 256.965 71.8318 256.853C71.4954 256.741 71.201 256.502 70.9488 256.138C70.2198 256.081 69.5189 255.941 68.846 255.717C68.2012 255.408 67.4723 255.211 66.6592 255.127C66.2386 254.987 66.1546 254.818 66.407 254.622C66.7435 254.454 66.8136 254.384 66.6173 254.412C66.2529 254.103 66.0707 254.089 66.0706 254.37C66.1546 254.678 66.1265 254.903 65.9863 255.043C65.5377 254.986 65.2012 254.874 64.977 254.706C64.7527 254.538 64.6686 254.65 64.7245 255.042C64.5003 254.874 64.3181 254.72 64.1779 254.58C64.0378 254.439 63.7434 254.341 63.2948 254.285C63.0985 254.313 63.0424 254.341 63.1265 254.369C63.2106 254.397 63.2667 254.509 63.2946 254.705C63.4629 254.762 63.8834 254.902 64.5563 255.126C65.2291 255.351 65.5235 255.309 65.4395 255L66.9112 256.052C66.715 256.08 66.4907 256.052 66.2383 255.968C65.986 255.884 65.6355 255.814 65.1869 255.757C65.8037 256.15 66.6167 256.515 67.626 256.852C68.6633 257.104 69.7428 257.371 70.8642 257.652L70.7803 257.063C71.369 257.259 71.8036 257.358 72.084 257.358C72.3362 257.722 72.6165 258.003 72.9249 258.199C73.3174 258.424 73.8781 258.564 74.6071 258.62C74.6352 258.536 74.6212 258.298 74.5653 257.905C74.8736 258.102 74.9858 258.186 74.9017 258.158C74.9297 258.074 75.0419 258.018 75.2382 257.99C75.6307 258.214 75.6306 258.354 75.238 258.41C74.9577 258.41 74.9156 258.536 75.1118 258.789C76.0931 258.929 76.794 259.21 77.2144 259.631C77.4388 259.518 77.6491 259.448 77.8454 259.42C78.0416 259.392 78.3921 259.463 78.8967 259.631C78.9808 259.659 79.0649 259.827 79.1489 260.136C79.4013 260.22 79.5415 260.22 79.5695 260.136C79.6256 259.968 79.7098 259.996 79.8218 260.22C80.0742 260.304 80.2144 260.304 80.2424 260.22C80.3827 260.08 80.4948 260.164 80.5788 260.473ZM94.4971 270.024C94.3569 270.164 94.3709 270.263 94.5391 270.319C94.7914 270.403 95.0437 270.487 95.2961 270.571C95.5484 270.656 95.7026 270.754 95.7586 270.866C95.9268 270.922 95.8708 270.95 95.5904 270.95C95.4783 270.726 95.3101 270.669 95.0857 270.782C94.8894 270.81 94.7072 270.795 94.539 270.739C91.3429 269.673 87.9645 268.592 84.4039 267.498C80.8433 266.403 77.2968 265.266 73.7642 264.088C73.6522 263.863 73.6802 263.779 73.8484 263.835C74.0166 263.891 74.0307 263.849 73.8905 263.709C74.7036 263.794 75.8251 264.074 77.2549 264.551C78.7969 264.972 80.1848 265.295 81.4184 265.52C81.4744 265.632 81.4184 265.66 81.2501 265.604C81.166 265.576 81.0679 265.59 80.9557 265.646C81.8528 266.039 82.5958 266.334 83.1845 266.53C83.7733 266.726 84.6004 266.909 85.6658 267.077C85.7779 267.302 85.7358 267.428 85.5395 267.456C85.3713 267.4 85.4554 267.428 85.7918 267.54C86.9695 267.372 88.3153 267.681 89.8291 268.467C91.4271 269.28 92.9831 269.8 94.4971 270.024ZM122.464 276.552C123.277 277.197 124.328 277.688 125.618 278.025C126.936 278.278 128.057 278.559 128.982 278.867C124.693 277.156 120.235 275.528 115.609 273.984C110.983 272.441 106.511 270.995 102.194 269.648C102.306 269.873 102.488 270.027 102.741 270.111C102.993 270.195 103.175 270.349 103.287 270.574C106.203 271.079 109.329 271.936 112.665 273.142C116.002 274.349 119.24 275.57 122.38 276.804C122.268 276.58 122.296 276.496 122.464 276.552ZM196.437 301.095C196.016 300.955 195.666 300.885 195.385 300.884C195.133 300.8 194.923 300.73 194.755 300.674C194.951 300.646 194.937 300.548 194.713 300.38C194.488 300.211 194.446 300.057 194.587 299.917C195.372 300.366 196.086 300.744 196.731 301.053C197.488 301.306 198.161 301.67 198.75 302.147C198.918 302.203 198.932 302.161 198.792 302.021C198.764 301.825 198.96 301.797 199.381 301.937C199.605 302.105 199.703 302.232 199.675 302.316C199.647 302.4 199.829 302.414 200.222 302.358C200.25 302.554 200.25 302.694 200.222 302.779C200.278 302.891 200.446 302.947 200.726 302.947C201.175 303.003 201.82 303.172 202.661 303.452C202.857 303.985 203.291 304.364 203.964 304.588C204.637 304.813 205.478 305.093 206.487 305.43C206.684 305.683 206.669 305.865 206.445 305.977C206.249 306.005 205.996 306.061 205.688 306.145C205.436 306.061 205.38 305.949 205.52 305.808C205.688 305.584 205.59 305.458 205.226 305.43C204.889 305.318 204.665 305.289 204.553 305.345C204.441 305.401 204.174 305.359 203.754 305.219C203.529 304.77 203.053 304.518 202.324 304.462C202.212 304.237 202.198 304.139 202.282 304.167C202.45 304.223 202.59 304.223 202.703 304.167C201.273 303.69 200.039 303.185 199.002 302.652C198.049 302.147 196.969 301.74 195.764 301.431C195.652 301.207 195.764 301.151 196.1 301.263C196.521 301.403 196.633 301.347 196.437 301.095ZM101.27 266.115C101.13 265.975 101.046 265.807 101.018 265.61C100.99 265.414 100.863 265.232 100.639 265.063C101.845 265.372 103.499 265.877 105.602 266.579C107.816 267.225 109.569 267.856 110.858 268.473C110.494 268.445 110.059 268.347 109.555 268.178C109.162 267.954 108.812 267.884 108.503 267.968C108.643 268.108 108.798 268.206 108.966 268.262C109.162 268.234 109.232 268.305 109.176 268.473C108.755 268.332 108.559 268.36 108.587 268.557C108.699 268.781 108.559 268.781 108.167 268.557C107.914 268.472 107.816 268.346 107.872 268.178C107.928 268.01 107.718 267.94 107.241 267.967C107.241 267.967 107.354 267.911 107.578 267.799C107.242 267.687 107.199 267.673 107.452 267.757C107.732 267.757 107.816 267.645 107.704 267.421C107.256 267.365 106.737 267.238 106.148 267.042C105.672 266.789 105.279 266.705 104.971 266.789C105.251 266.789 105.363 266.873 105.307 267.042C105.279 267.126 105.293 267.224 105.349 267.336C105.517 267.392 105.643 267.434 105.727 267.462C105.924 267.434 106.106 267.448 106.274 267.504C106.218 267.673 106.092 267.771 105.896 267.799C105.812 267.771 105.896 267.799 106.148 267.883C105.699 267.827 105.587 267.883 105.811 268.051C106.12 268.247 106.26 268.388 106.232 268.472C106.064 268.416 105.966 268.43 105.937 268.514C105.937 268.514 105.839 268.528 105.643 268.556C105.615 268.079 105.335 267.658 104.802 267.294C104.382 266.873 103.989 266.508 103.625 266.2C103.204 266.06 102.868 265.947 102.616 265.863C102.391 265.695 102.055 265.583 101.606 265.526C101.578 265.61 101.62 265.765 101.732 265.989C101.845 266.213 101.69 266.255 101.27 266.115ZM222.971 315.698C222.663 315.782 222.62 315.908 222.845 316.076C223.181 316.188 223.237 316.3 223.013 316.413C220.91 315.431 218.906 314.435 216.999 313.425C215.205 312.358 213.159 311.348 210.86 310.394C210.832 310.479 210.846 310.577 210.902 310.689C210.229 310.464 209.766 310.17 209.514 309.805C210.075 310.086 210.257 310.1 210.061 309.847C209.977 309.539 210.131 309.497 210.524 309.721C210.86 309.834 211.084 310.002 211.196 310.226C211.337 310.367 211.687 310.437 212.248 310.437C212.584 310.83 213.243 311.236 214.224 311.657C215.205 312.078 216.229 312.513 217.294 312.962C217.855 313.523 218.626 314.014 219.607 314.435C220.672 314.884 221.794 315.305 222.971 315.698ZM167.757 289.142C168.233 288.833 168.724 288.904 169.229 289.352C169.845 289.745 170.504 289.871 171.205 289.731C171.149 289.9 171.5 290.25 172.256 290.783C173.126 291.26 173.812 291.443 174.317 291.331C174.906 291.807 175.649 292.102 176.546 292.215C177.443 292.327 177.948 292.776 178.06 293.561C176.265 292.775 174.639 292.046 173.182 291.372C171.836 290.643 170.168 290.04 168.177 289.562C168.205 289.478 168.135 289.408 167.967 289.352C167.883 289.324 167.813 289.254 167.757 289.142ZM239.624 323.357C239.568 323.526 239.708 323.666 240.044 323.778C240.381 323.89 240.745 324.059 241.138 324.283C241.558 324.423 241.965 324.606 242.357 324.83C242.778 324.971 243.03 325.195 243.114 325.503C242.749 325.195 242.273 324.942 241.684 324.746C241.123 324.465 240.549 324.227 239.96 324.03C239.483 323.778 239.007 323.525 238.53 323.273C238.054 323.02 237.815 322.754 237.815 322.474C236.442 321.828 235.152 321.211 233.947 320.622C232.853 319.977 231.76 319.331 230.667 318.686C231.031 318.714 231.508 318.827 232.097 319.023C233.05 319.808 234.269 320.496 235.755 321.085C237.325 321.702 238.615 322.46 239.624 323.357ZM89.5787 262.494C89.7749 262.466 89.803 262.382 89.6629 262.242C89.6068 262.13 89.4386 262.074 89.1582 262.074C89.074 262.326 88.9899 262.438 88.9057 262.41C88.5133 262.186 88.0367 261.933 87.476 261.653C86.9153 261.372 86.3826 261.148 85.878 260.979C85.7659 260.755 85.794 260.671 85.9622 260.727C86.1585 260.699 86.2006 260.573 86.0885 260.348C86.8455 260.32 87.4483 260.475 87.8968 260.812C88.4295 261.176 88.9481 261.303 89.4529 261.191C89.565 261.415 89.8032 261.681 90.1676 261.99C90.6161 262.326 90.7142 262.593 90.4618 262.789C90.4058 262.396 90.2516 262.298 89.9992 262.494C89.7468 262.691 89.6066 262.691 89.5787 262.494ZM160.145 285.901C160.089 286.069 160.075 286.251 160.103 286.447C160.131 286.644 160.369 286.77 160.818 286.826C160.902 287.135 160.846 287.163 160.65 286.91C160.453 286.658 160.271 286.644 160.103 286.868C160.019 286.84 159.977 286.826 159.977 286.826C160.005 286.742 159.935 286.672 159.766 286.616C159.598 286.84 159.668 287.05 159.977 287.247C160.369 287.471 160.411 287.625 160.103 287.709C159.682 287.569 159.416 287.527 159.304 287.583C159.219 287.555 158.701 287.428 157.747 287.204C157.888 287.064 157.888 286.923 157.748 286.783C157.636 286.559 157.706 286.489 157.958 286.573C158.014 286.685 158.266 286.769 158.715 286.826C159.164 286.882 159.416 286.826 159.472 286.658C159.164 286.461 158.953 286.251 158.841 286.026C158.729 285.802 158.393 285.69 157.832 285.69C157.972 285.55 157.846 285.367 157.454 285.143C157.145 284.946 157.187 284.82 157.58 284.764C158.085 284.933 158.491 285.115 158.8 285.311C159.108 285.508 159.556 285.704 160.145 285.901ZM105.602 265.317C105.854 265.401 105.995 265.401 106.023 265.317C106.051 265.233 105.981 265.163 105.812 265.107C107.943 266.005 110.242 266.819 112.709 267.549C115.176 268.278 117.475 269.092 119.606 269.99C117.139 269.26 114.714 268.545 112.331 267.843C109.976 267.057 107.733 266.215 105.602 265.317ZM151.608 285.015C151.411 284.762 151.327 284.594 151.355 284.51C151.468 284.454 151.426 284.3 151.229 284.047C151.482 284.132 151.734 284.216 151.986 284.3C152.267 284.3 152.533 284.342 152.785 284.426C153.122 284.819 153.542 285.1 154.047 285.268C154.58 285.352 155.225 285.521 155.981 285.773C155.953 285.857 155.925 285.941 155.897 286.026C155.981 286.054 156.009 286.11 155.981 286.194C155.813 286.138 155.603 286.068 155.351 285.983C155.098 285.899 154.986 285.955 155.014 286.151C154.93 286.123 154.874 286.151 154.846 286.236C154.846 286.236 154.804 286.221 154.72 286.193L154.593 286.151C154.453 286.011 154.355 285.885 154.299 285.773C154.327 285.689 154.257 285.618 154.089 285.562C153.837 285.478 153.724 285.534 153.752 285.73C153.808 285.843 153.668 285.843 153.332 285.73C153.136 285.478 152.897 285.352 152.617 285.352C152.365 285.267 152.028 285.155 151.608 285.015ZM169.524 288.049C167.533 287.571 165.262 286.814 162.711 285.775C160.16 284.737 157.945 283.811 156.066 282.997C158.534 283.727 160.776 284.569 162.795 285.523C164.926 286.421 167.169 287.263 169.524 288.049ZM173.097 293.728C173.545 294.064 173.77 294.092 173.77 293.812C173.854 293.56 174.232 293.546 174.905 293.77C174.737 293.714 174.527 293.644 174.274 293.56C174.134 293.419 174.134 293.279 174.275 293.139C173.882 292.915 173.405 292.802 172.845 292.802C172.284 292.802 171.976 292.606 171.92 292.213C171.555 292.185 171.247 292.129 170.994 292.045C170.742 291.96 170.546 291.988 170.405 292.129C170.546 292.269 170.742 292.381 170.994 292.465C171.275 292.465 171.331 292.577 171.162 292.802C171.863 292.942 172.522 293.209 173.139 293.601C172.914 293.714 172.648 293.671 172.34 293.475C172.031 293.279 171.695 293.166 171.33 293.138C171.443 293.363 171.709 293.545 172.129 293.685C172.55 293.826 172.816 294.008 172.928 294.232C173.097 294.288 173.111 294.246 172.97 294.106C172.942 293.91 172.985 293.784 173.097 293.728ZM188.236 297.938C188.124 297.714 187.886 297.588 187.522 297.559C187.269 297.475 187.129 297.335 187.101 297.139C188.251 297.335 189.344 297.7 190.381 298.233C191.419 298.766 192.372 299.271 193.241 299.748C192.904 299.636 192.708 299.664 192.652 299.832C192.708 299.944 192.54 299.888 192.147 299.664C191.783 299.355 191.306 299.103 190.718 298.906C190.241 298.654 189.848 298.569 189.54 298.654C189.344 298.401 189.106 298.135 188.825 297.854C188.657 297.798 188.559 297.812 188.531 297.896C188.587 298.008 188.489 298.022 188.236 297.938ZM216.538 311.027C216.902 311.336 217.421 311.602 218.093 311.827C218.85 312.079 219.019 311.995 218.598 311.574C218.879 311.855 219.313 312.093 219.902 312.29C220.603 312.43 220.995 312.655 221.079 312.963C220.743 312.851 220.378 312.683 219.986 312.458C219.706 312.178 219.369 312.065 218.977 312.121C218.836 312.261 218.892 312.374 219.145 312.458C219.425 312.458 219.495 312.528 219.355 312.668C219.103 312.584 218.934 312.668 218.85 312.92C218.794 313.089 218.696 313.103 218.556 312.962C218.444 312.738 218.304 312.598 218.135 312.542C217.967 312.486 217.869 312.359 217.841 312.163C217.364 312.191 216.677 312.149 215.78 312.036C216.173 311.98 216.313 311.84 216.201 311.616C216.117 311.307 216.229 311.111 216.538 311.027ZM86.8021 264.933C88.0917 265.27 89.1992 265.593 90.1244 265.901C91.1617 266.154 92.1009 266.421 92.942 266.701C93.8672 267.01 94.8344 267.333 95.8437 267.669C96.853 268.006 98.0305 268.399 99.3763 268.848C98.7315 268.54 97.9465 268.231 97.0213 267.922C96.2083 267.557 95.3251 267.263 94.3719 267.038C93.5308 266.757 92.6757 266.519 91.8066 266.322C91.0496 266.07 90.4608 265.873 90.0403 265.733C89.7319 265.537 89.1151 265.284 88.19 264.975C87.3489 264.695 86.8862 264.681 86.8021 264.933ZM143.829 278.493C143.324 278.325 142.679 278.157 141.894 277.988C141.137 277.735 140.296 277.455 139.371 277.146C138.53 276.865 137.689 276.585 136.848 276.304C136.035 275.939 135.348 275.617 134.787 275.336C137.086 276.01 139.035 276.613 140.633 277.147C142.231 277.68 144.109 278.213 146.268 278.746C146.072 279.055 145.609 279.041 144.88 278.704C144.179 278.283 143.591 278.087 143.114 278.115C143.17 278.227 143.408 278.353 143.829 278.493ZM225.242 316.035C225.354 316.259 225.228 316.357 224.863 316.329C224.611 316.245 224.387 316.217 224.191 316.245C224.247 316.076 224.177 316.006 223.98 316.034C223.896 316.006 223.826 315.936 223.77 315.824C224.247 315.796 224.471 315.824 224.443 315.908C224.527 315.936 224.751 315.964 225.116 315.993C224.723 315.768 224.415 315.572 224.191 315.403C223.967 315.235 223.602 315.067 223.097 314.898C222.901 314.926 222.831 314.997 222.887 315.109C222.943 315.221 222.887 315.249 222.719 315.193C222.775 315.025 222.775 314.884 222.719 314.772C222.691 314.576 222.859 314.492 223.224 314.52C223.504 314.8 223.882 315.067 224.359 315.319C224.948 315.516 225.438 315.586 225.831 315.53C225.943 315.755 226.181 316.021 226.546 316.33C226.938 316.554 226.966 316.75 226.63 316.918C226.209 316.778 225.929 316.638 225.789 316.498C225.649 316.357 225.466 316.203 225.242 316.035ZM58.4581 254.073C58.6825 253.961 58.7386 253.793 58.6265 253.568C58.5144 253.344 58.4024 253.12 58.2903 252.895L57.5333 252.643C57.6173 252.951 57.6313 253.19 57.5751 253.358C56.762 253.273 55.977 253.105 55.22 252.852C54.5752 252.544 54.1406 252.586 53.9162 252.978C54.3648 253.034 54.7994 253.133 55.2199 253.273C55.6685 253.329 55.8788 253.259 55.8508 253.063C56.047 253.315 56.3975 253.526 56.9021 253.694C57.5189 253.806 58.0376 253.933 58.4581 254.073ZM41.0898 248.558C40.6693 248.137 39.9544 247.899 38.945 247.842C37.9356 247.786 37.3749 247.646 37.2628 247.421C37.2067 247.589 36.9123 247.631 36.3796 247.547C35.959 247.407 35.7627 247.435 35.7907 247.631C36.5758 247.519 37.3749 247.786 38.1878 248.431L41.0898 248.558ZM52.6127 251.842C52.8091 251.534 52.683 251.351 52.2344 251.295C51.7858 251.239 51.5475 251.113 51.5195 250.916C51.2952 251.029 50.8746 251.028 50.2577 250.916C49.669 250.72 49.3186 250.509 49.2065 250.285C48.898 250.369 48.6877 250.439 48.5755 250.495C48.4914 250.467 48.2672 250.299 47.9028 249.99C48.0149 250.214 47.9027 250.27 47.5663 250.158C47.3139 250.074 47.1037 250.004 46.9354 249.948C46.9634 250.144 47.3559 250.368 48.1129 250.621C48.9539 250.902 49.4586 250.93 49.6269 250.706C49.9072 250.986 50.2997 251.211 50.8044 251.379C51.4212 251.491 52.024 251.646 52.6127 251.842ZM97.9047 267.376C98.1289 267.824 98.7876 268.231 99.881 268.596C101.003 268.877 101.914 269.087 102.615 269.228C101.185 268.47 99.6149 267.853 97.9047 267.376ZM166.453 288.426C166.621 288.482 166.888 288.524 167.252 288.553C167.617 288.581 167.855 288.707 167.967 288.931C167.406 288.931 166.747 288.805 165.99 288.552C165.234 288.3 164.757 288.047 164.561 287.795C164.505 287.963 164.35 288.005 164.098 287.921L163.005 286.995C162.752 286.911 162.598 286.813 162.542 286.701C163.243 287.121 164.014 287.472 164.855 287.753C165.696 288.033 166.257 288.174 166.537 288.174C166.369 288.118 166.341 288.202 166.453 288.426ZM135.164 281.351C135.669 281.519 135.935 281.561 135.963 281.477C136.019 281.309 136.258 281.295 136.678 281.435C135.781 281.042 134.744 280.65 133.566 280.257C132.473 279.892 131.337 279.513 130.16 279.12C130.636 279.653 131.491 280.032 132.725 280.256C134.043 280.509 134.856 280.874 135.164 281.351ZM148.117 282.869C148.23 283.093 148.37 283.233 148.538 283.289C148.818 283.29 149.099 283.29 149.379 283.29C149.547 283.346 149.659 283.43 149.715 283.542C149.884 283.598 150.052 283.654 150.22 283.711C150.024 283.739 149.954 283.809 150.01 283.921C150.066 284.033 150.08 284.131 150.052 284.215C149.407 284.187 149.07 284.075 149.042 283.878C149.127 283.626 148.944 283.472 148.496 283.416C148.243 283.331 148.173 283.402 148.285 283.626C148.426 283.766 148.299 283.724 147.907 283.5C147.795 283.275 147.599 283.163 147.318 283.163C147.066 283.079 146.884 282.924 146.772 282.7C146.968 282.672 147.192 282.7 147.445 282.784C147.697 282.869 147.921 282.897 148.117 282.869ZM139.244 280.469C138.88 280.16 138.585 279.922 138.361 279.753C138.165 279.501 137.758 279.319 137.141 279.206C137.113 279.29 137.127 279.389 137.183 279.501C137.267 279.529 137.211 279.557 137.015 279.585L136.847 278.828C137.52 279.052 137.856 279.164 137.856 279.164C137.969 279.108 138.417 279.165 139.202 279.333C139.23 279.529 139.342 279.754 139.538 280.006C139.819 280.287 139.721 280.441 139.244 280.469ZM145.047 284.929C144.626 284.508 144.57 284.396 144.878 284.592C145.187 284.789 145.383 284.761 145.467 284.508C144.542 284.2 143.659 283.905 142.818 283.624C142.061 283.372 141.318 283.077 140.589 282.74C140.337 282.936 140.379 283.091 140.715 283.203C141.164 283.259 141.402 283.385 141.43 283.582C141.654 283.47 141.963 283.526 142.355 283.75C142.748 283.975 143.294 284.157 143.995 284.297C143.995 284.297 144.346 284.508 145.047 284.929ZM54.3373 251.296C54.3933 251.408 54.5055 251.492 54.6737 251.548C54.87 251.52 55.0802 251.591 55.3045 251.759C55.2484 251.927 55.038 251.997 54.6735 251.969C54.4212 251.885 54.309 251.941 54.337 252.137C55.0099 252.362 55.4725 252.516 55.7248 252.6C56.0893 252.628 56.608 252.755 57.2808 252.979C57.337 252.811 57.2389 252.685 56.9866 252.601C56.7342 252.516 56.6782 252.404 56.8184 252.264C56.8746 252.096 56.7344 252.096 56.3978 252.264C56.1454 252.46 55.9912 252.362 55.9353 251.969C55.8512 251.941 55.711 251.941 55.5147 251.969C55.4025 252.025 55.3325 251.955 55.3045 251.759C55.3606 251.591 55.3607 251.45 55.3046 251.338C54.8841 251.198 54.5616 251.184 54.3373 251.296ZM204.932 304.21C204.904 304.014 204.707 303.901 204.343 303.873C204.091 303.789 203.796 303.691 203.46 303.579C203.432 303.382 203.558 303.284 203.838 303.284C204.119 303.284 204.427 303.341 204.764 303.453C205.1 303.565 205.422 303.719 205.731 303.916C206.067 304.028 206.306 304.154 206.446 304.295L204.932 304.21ZM227.513 315.531C226.448 315.082 225.523 314.633 224.738 314.184C223.953 313.735 223.042 313.244 222.005 312.711C222.93 313.02 223.911 313.441 224.948 313.974C225.986 314.507 226.841 315.026 227.513 315.531ZM209.682 310.983C210.467 311.151 211.084 311.404 211.532 311.74C212.065 312.105 212.556 312.456 213.004 312.792C212.359 312.484 211.644 312.245 210.859 312.077C210.102 311.824 209.71 311.46 209.682 310.983ZM117.082 271.251C116.549 271.167 116.059 270.956 115.61 270.62C115.246 270.311 114.825 270.031 114.349 269.778C114.601 269.582 114.825 269.61 115.022 269.862C115.33 270.059 115.793 270.213 116.409 270.326C116.437 270.522 116.521 270.69 116.662 270.83C116.83 270.886 116.97 271.027 117.082 271.251ZM216.033 309.597C215.08 309.372 214.211 309.036 213.426 308.587C212.669 308.054 211.898 307.563 211.113 307.114C211.842 307.451 212.641 307.857 213.51 308.334C214.407 308.727 215.248 309.148 216.033 309.597ZM141.556 285.306C142.789 285.531 143.869 285.938 144.794 286.527C144.093 286.386 143.448 286.218 142.859 286.022C142.27 285.825 141.836 285.587 141.556 285.306ZM114.307 269.484C114.363 269.596 114.293 269.666 114.096 269.694C114.012 269.666 114.054 269.68 114.223 269.736C113.97 269.652 113.676 269.554 113.339 269.441C113.087 269.357 112.723 269.329 112.246 269.357C112.022 269.189 111.783 269.062 111.531 268.978C111.279 268.894 111.139 268.754 111.111 268.557C111.84 268.614 112.358 268.74 112.667 268.936C113.059 269.161 113.606 269.343 114.307 269.484ZM46.6827 251.125C47.1594 251.097 47.7342 251.196 48.407 251.42C49.164 251.673 49.8089 251.701 50.3417 251.505C49.6127 251.449 48.9538 251.322 48.3651 251.126C47.8604 250.957 47.2436 250.845 46.5146 250.789C46.6828 250.845 46.7389 250.957 46.6827 251.125ZM213.636 308.797C213.748 309.021 213.959 309.232 214.267 309.428C214.687 309.568 215.094 309.751 215.486 309.975C215.066 310.115 214.631 310.017 214.183 309.68C213.846 309.288 213.524 309.133 213.216 309.218C213.356 309.077 213.174 308.923 212.669 308.755C212.248 308.614 212.15 308.488 212.375 308.376C212.403 308.572 212.557 308.671 212.837 308.671C213.202 308.699 213.468 308.741 213.636 308.797ZM226.924 318.138C226.251 317.914 225.662 317.717 225.157 317.549C224.653 317.38 224.359 317.142 224.274 316.833C224.779 317.002 225.27 317.212 225.746 317.465C226.251 317.633 226.643 317.858 226.924 318.138ZM98.3675 266.829C97.5545 266.464 96.6293 266.156 95.5919 265.903C94.6667 265.594 93.8958 265.244 93.279 264.851C93.2509 265.215 93.8396 265.552 95.0452 265.861C96.3349 266.198 97.4423 266.52 98.3675 266.829ZM119.647 274.49C118.918 274.434 118.399 274.308 118.091 274.111C117.894 273.859 117.488 273.677 116.871 273.564C117.151 273.845 117.53 274.111 118.006 274.364C118.511 274.532 119.1 274.728 119.773 274.953C119.604 274.897 119.562 274.743 119.647 274.49ZM215.065 313.76C215.569 313.929 216.102 314.153 216.663 314.434C217.336 314.658 217.602 314.841 217.462 314.981C217.378 314.953 217.335 314.939 217.335 314.939C217.364 314.855 217.335 314.799 217.251 314.77C217.195 314.939 217.041 314.981 216.789 314.896C216.677 314.672 216.354 314.518 215.822 314.434C215.317 314.265 215.065 314.041 215.065 313.76ZM141.894 278.829C142.006 279.054 142.146 279.194 142.315 279.25C142.511 279.222 142.819 279.278 143.24 279.418C143.296 279.531 143.366 279.601 143.45 279.629C143.618 279.685 143.772 279.783 143.913 279.923C143.268 279.895 142.623 279.727 141.978 279.418C141.361 279.025 141.333 278.829 141.894 278.829ZM161.407 287.163C161.351 287.051 161.28 286.981 161.196 286.952C161.224 286.868 161.098 286.826 160.818 286.826C160.958 286.686 160.944 286.588 160.776 286.532C160.608 286.476 160.552 286.363 160.608 286.195C161.028 286.336 161.407 286.462 161.743 286.574C162.108 286.602 162.304 286.715 162.332 286.911C162.052 286.911 161.855 286.939 161.743 286.995C161.715 287.079 161.603 287.135 161.407 287.163ZM152.071 283.627C152.155 283.375 151.861 282.996 151.188 282.491C151.636 282.547 151.917 282.688 152.029 282.912C152.169 283.052 152.463 283.151 152.912 283.207C152.94 283.403 152.884 283.571 152.744 283.711C152.716 283.795 152.491 283.767 152.071 283.627ZM147.822 285.855C148.271 285.911 148.607 286.023 148.831 286.192C149.168 286.304 149.56 286.388 150.009 286.444C149.925 286.136 149.561 285.968 148.916 285.939C148.299 285.827 147.948 285.617 147.864 285.308C147.5 285.28 147.43 285.35 147.654 285.518C147.878 285.687 147.934 285.799 147.822 285.855ZM148.328 281.817C148.244 281.509 147.894 281.299 147.277 281.186C146.66 281.074 146.31 280.863 146.226 280.555C146.898 280.78 147.389 280.99 147.697 281.186C148.09 281.411 148.595 281.579 149.211 281.691C149.015 281.719 148.903 281.776 148.875 281.86C148.931 281.972 148.749 281.958 148.328 281.817ZM193.324 301.599C193.352 301.795 193.563 302.005 193.955 302.23C194.376 302.37 194.74 302.398 195.048 302.314C195.049 302.034 194.824 301.866 194.376 301.809C194.039 301.697 193.689 301.627 193.324 301.599ZM132.979 276.135C132.698 276.135 132.306 276.05 131.801 275.882C131.296 275.714 130.988 275.517 130.876 275.293C131.184 275.209 131.577 275.293 132.053 275.546C132.53 275.798 132.838 275.995 132.979 276.135ZM60.1403 254.494C60.8973 254.747 61.3179 254.747 61.4021 254.495C60.561 254.214 59.9162 254.045 59.4676 253.989C59.5236 254.101 59.4675 254.129 59.2993 254.073C59.4114 254.298 59.4955 254.326 59.5516 254.157C59.7198 254.214 59.7899 254.284 59.7618 254.368C59.8179 254.48 59.9441 254.522 60.1403 254.494ZM18.3799 243.504C18.492 243.728 18.8284 243.841 19.3892 243.841C19.9499 243.841 20.1743 243.729 20.0622 243.504C19.3893 243.28 18.8286 243.28 18.3799 243.504ZM154.678 284.217C154.622 284.105 154.51 284.02 154.342 283.964C154.174 283.908 154.117 283.796 154.174 283.628C154.846 283.852 155.281 283.951 155.477 283.923C155.393 284.175 155.561 284.371 155.982 284.511C155.814 284.455 155.589 284.427 155.309 284.427C155.057 284.343 154.846 284.273 154.678 284.217ZM214.182 310.942C214.07 310.718 214.154 310.606 214.435 310.606C214.799 310.634 214.925 310.536 214.813 310.312C214.982 310.368 215.108 310.41 215.192 310.438C215.388 310.41 215.57 310.424 215.739 310.48C215.542 310.788 215.023 310.942 214.182 310.942ZM70.4432 258.913C70.6114 259.25 70.9338 259.404 71.4104 259.376C71.9712 259.377 72.3778 259.419 72.6301 259.503C72.4899 259.363 72.1115 259.236 71.4946 259.124C70.99 258.956 70.6395 258.885 70.4432 258.913ZM75.7424 259.42C75.8545 259.644 76.1629 259.841 76.6675 260.009C77.2002 260.093 77.7189 260.22 78.2236 260.388C77.8311 260.163 77.4246 259.981 77.004 259.841C76.6957 259.644 76.2751 259.504 75.7424 259.42ZM61.5706 253.569C60.7856 253.401 60.4491 253.569 60.561 254.074C60.9816 254.214 61.2199 254.2 61.2761 254.032C61.3322 253.864 61.4304 253.709 61.5706 253.569ZM180.499 294.235C180.078 294.094 179.602 293.982 179.069 293.898C178.648 293.757 178.382 293.575 178.27 293.351C178.887 293.463 179.307 293.603 179.532 293.772C179.784 293.856 180.148 293.884 180.625 293.856C180.653 294.052 180.611 294.179 180.499 294.235ZM28.2217 243.002C28.2496 243.199 27.9132 243.227 27.2122 243.086C26.6235 242.89 26.1889 242.791 25.9085 242.791C26.217 242.707 26.5114 242.665 26.7918 242.665C27.1563 242.694 27.6329 242.806 28.2217 243.002ZM223.476 314.184C223.112 313.875 222.663 313.679 222.131 313.594C221.626 313.426 221.332 313.188 221.248 312.879C221.64 313.104 222.032 313.328 222.425 313.552C222.93 313.721 223.28 313.931 223.476 314.184ZM133.862 275.168C133.161 275.027 132.544 274.775 132.012 274.41C132.46 274.466 132.853 274.551 133.189 274.663C133.526 274.775 133.75 274.943 133.862 275.168ZM90.0408 264.051C89.9007 263.91 89.6063 263.812 89.1577 263.756C88.8212 263.644 88.4708 263.574 88.1063 263.545L88.3586 263.63C88.3306 263.714 88.3165 263.756 88.3165 263.756C88.4006 263.784 88.4286 263.84 88.4006 263.924C88.4848 263.672 88.7511 263.714 89.1997 264.05C89.6482 264.387 89.9286 264.387 90.0408 264.051ZM92.2694 265.776C91.8488 265.635 91.4003 265.439 90.9237 265.187C90.5593 264.878 90.1808 264.752 89.7882 264.808C89.9003 265.032 90.2227 265.186 90.7554 265.271C91.3722 265.383 91.8208 265.579 92.1011 265.86C92.017 265.832 91.9749 265.818 91.9749 265.818C92.0871 265.762 92.1853 265.748 92.2694 265.776ZM25.4039 242.623C25.4319 242.819 25.1795 242.875 24.6468 242.791C24.1982 242.735 23.9038 242.636 23.7636 242.496C23.8198 242.328 24.0161 242.3 24.3525 242.412C24.717 242.44 25.0674 242.511 25.4039 242.623ZM175.451 298.018C175.535 298.327 175.843 298.523 176.376 298.607C176.993 298.72 177.259 298.902 177.175 299.154C176.978 298.902 176.572 298.72 175.955 298.607C175.338 298.495 174.974 298.327 174.862 298.102C174.862 298.102 175.058 298.074 175.451 298.018ZM150.682 286.529C150.85 286.865 151.411 287.146 152.364 287.37C152.336 287.174 152.098 287.048 151.649 286.992C151.229 286.851 150.906 286.697 150.682 286.529ZM67.5403 261.73C67.7086 261.787 67.8347 261.829 67.9188 261.857C68.1151 261.829 68.2974 261.843 68.4656 261.899C68.3533 262.235 68.199 262.418 68.0028 262.446C68.087 262.193 67.8907 262.081 67.4141 262.109C67.358 261.997 67.372 261.955 67.4561 261.983C67.5683 261.927 67.5964 261.843 67.5403 261.73ZM227.429 317.045C227.625 317.297 227.709 317.465 227.681 317.55C227.485 317.578 227.218 317.535 226.882 317.423C226.658 316.974 226.84 316.848 227.429 317.045ZM167.462 290.866C167.49 291.062 167.63 291.202 167.882 291.287C168.219 291.399 168.485 291.441 168.681 291.413C168.625 291.301 168.513 291.217 168.345 291.161C168.177 291.104 168.163 291.006 168.303 290.866C167.742 290.866 167.462 290.866 167.462 290.866ZM22.4178 242.328C22.2215 242.356 21.9832 242.369 21.7028 242.369C21.5065 242.397 21.2122 242.299 20.8197 242.075C20.7917 241.878 20.988 241.85 21.4085 241.991C21.9412 242.075 22.2777 242.187 22.4178 242.328ZM187.1 300.083C187.156 299.915 187.1 299.802 186.932 299.746C186.792 299.606 186.792 299.466 186.932 299.326C186.736 299.354 186.512 299.326 186.259 299.241C186.371 299.466 186.357 299.648 186.217 299.788C186.189 299.872 186.483 299.97 187.1 300.083ZM108.375 274.655C108.291 274.627 108.221 274.697 108.165 274.865C107.8 274.837 107.548 274.753 107.408 274.613C107.267 274.472 107.085 274.318 106.861 274.15C107.282 274.29 107.576 274.388 107.744 274.445C107.94 274.417 108.151 274.487 108.375 274.655ZM217.21 311.111C216.79 310.971 216.425 310.803 216.117 310.606C215.893 310.438 215.683 310.228 215.486 309.975C216.271 310.424 216.846 310.803 217.21 311.111ZM101.1 269.564C101.521 269.704 101.731 269.774 101.731 269.774C101.843 269.718 101.998 269.676 102.194 269.648L100.049 268.933C99.993 269.101 100.147 269.199 100.512 269.227C100.876 269.255 101.072 269.367 101.1 269.564ZM230.793 317.887C230.232 317.887 229.882 317.817 229.742 317.676C229.63 317.452 229.462 317.256 229.237 317.087C230.162 317.396 230.681 317.663 230.793 317.887ZM118.259 272.766C117.642 272.653 117.348 272.415 117.376 272.05L118.259 272.345C118.231 272.429 118.203 272.513 118.175 272.597C118.259 272.625 118.287 272.681 118.259 272.766ZM109.386 270.365C109.358 270.169 109.204 270.071 108.923 270.071C108.671 269.987 108.461 269.917 108.292 269.86C108.236 270.029 108.236 270.169 108.292 270.281C108.488 270.253 108.699 270.323 108.923 270.491C109.259 270.604 109.414 270.562 109.386 270.365ZM123.054 272.683C122.549 272.514 122.437 272.571 122.717 272.851C123.026 273.047 122.928 273.061 122.423 272.893C122.283 272.753 122.185 272.627 122.129 272.514C122.073 272.402 121.96 272.318 121.792 272.262C122.073 272.262 122.339 272.304 122.591 272.388C122.872 272.388 123.026 272.487 123.054 272.683ZM152.574 287.16C152.49 287.412 152.616 287.595 152.953 287.707C153.289 287.819 153.682 287.903 154.13 287.96C154.018 287.735 153.738 287.595 153.289 287.539C152.925 287.511 152.686 287.384 152.574 287.16ZM42.0149 249.147C42.6036 249.344 42.87 249.245 42.8141 248.853C42.2253 248.656 41.9589 248.755 42.0149 249.147ZM201.104 304.335C201.048 304.503 201.09 304.657 201.23 304.798C201.483 304.882 201.511 304.938 201.314 304.966C201.286 304.77 201.048 304.643 200.599 304.587C200.263 304.475 200.179 304.307 200.347 304.082L201.104 304.335ZM104.633 269.481C104.465 269.425 104.213 269.34 103.876 269.228C103.624 269.144 103.526 269.158 103.582 269.27C103.526 269.438 103.75 269.607 104.255 269.775C104.787 269.859 104.914 269.761 104.633 269.481ZM86.0036 262.704C85.9475 262.872 86.1297 263.026 86.5503 263.166C86.9989 263.223 87.1251 263.124 86.9289 262.872C86.3401 262.676 86.0317 262.619 86.0036 262.704ZM149.843 280.64C150.039 280.893 149.913 280.991 149.464 280.935C149.043 280.794 148.861 280.64 148.917 280.472C148.945 280.388 149.254 280.444 149.843 280.64ZM128.227 274.409C127.245 274.268 126.488 274.016 125.956 273.651C125.956 273.651 125.984 273.567 126.04 273.399C126.32 273.679 126.628 273.876 126.965 273.988C127.414 274.044 127.834 274.184 128.227 274.409ZM70.484 262.993C70.5962 262.937 70.9887 263.021 71.6616 263.246C72.4186 263.498 72.741 263.653 72.6288 263.709C72.3204 263.512 71.8859 263.414 71.3251 263.414C70.8765 263.358 70.5961 263.217 70.484 262.993ZM101.184 269.732C100.624 269.732 100.455 269.816 100.68 269.984C100.904 270.152 101.367 270.307 102.068 270.447C101.955 270.223 101.717 270.097 101.353 270.069C101.1 269.984 101.044 269.872 101.184 269.732ZM62.4116 253.99C62.4678 253.822 62.2995 253.906 61.9069 254.242C61.5423 254.495 61.7245 254.649 62.4535 254.705C62.3414 254.481 62.2853 254.369 62.2853 254.369C62.3975 254.313 62.4396 254.186 62.4116 253.99ZM156.947 290.021C156.891 290.19 156.975 290.358 157.2 290.526C157.452 290.61 157.704 290.695 157.957 290.779C158.125 290.555 158.027 290.428 157.662 290.4C157.41 290.316 157.172 290.19 156.947 290.021ZM200.977 306.816C200.949 306.62 201.047 306.606 201.272 306.774C201.608 306.887 201.875 306.929 202.071 306.901C202.183 307.125 202.015 307.209 201.566 307.153C201.117 307.097 200.921 306.985 200.977 306.816ZM97.8215 264.263C98.0739 264.348 98.3402 264.39 98.6206 264.39C98.9851 264.418 99.2234 264.544 99.3355 264.769C99.1673 264.712 99.1112 264.74 99.1672 264.853C98.7467 264.712 98.5364 264.642 98.5364 264.642C98.6205 264.67 98.5504 264.74 98.326 264.852C98.27 264.74 98.2701 264.6 98.3262 264.432C97.9897 264.32 97.8215 264.263 97.8215 264.263ZM184.788 295.666C184.9 295.89 184.69 295.96 184.157 295.876C183.737 295.736 183.555 295.581 183.611 295.413C183.779 295.469 183.947 295.525 184.115 295.582C184.396 295.582 184.62 295.61 184.788 295.666ZM97.5249 271.455C97.9454 271.596 98.366 271.736 98.7865 271.876C99.2351 271.932 99.5435 271.989 99.7117 272.045C99.9641 272.129 99.95 272.171 99.6696 272.171C99.5014 272.115 98.9827 271.988 98.1136 271.792C98.1417 271.708 98.0576 271.68 97.8613 271.708C97.6931 271.652 97.5809 271.567 97.5249 271.455ZM6.98255 241.944C7.17883 241.916 7.45922 241.916 7.82372 241.944C8.18821 241.973 8.31442 241.875 8.20233 241.65C7.97799 241.762 7.68357 241.804 7.31907 241.776C7.06675 241.692 6.95457 241.748 6.98255 241.944ZM148.663 287.537C148.523 287.678 148.635 287.762 148.999 287.79C149.364 287.818 149.658 287.916 149.882 288.085C149.742 287.944 149.56 287.79 149.336 287.622C149.111 287.453 148.887 287.425 148.663 287.537ZM163.761 289.351C163.789 289.267 163.509 289.126 162.92 288.93C163.116 288.902 163.144 288.818 163.004 288.677C162.976 288.481 163.159 288.495 163.551 288.72C163.719 288.776 163.859 288.916 163.972 289.14C164.112 289.281 164.042 289.351 163.761 289.351ZM8.28679 240.557C8.51114 240.445 8.79152 240.445 9.12796 240.557C9.57656 240.613 9.74482 240.529 9.63273 240.305C8.90374 240.248 8.45509 240.332 8.28679 240.557ZM82.7655 261.483C82.4572 261.286 82.2889 261.23 82.2609 261.314C82.2328 261.399 82.1206 261.455 81.9244 261.483C81.9523 261.679 82.1065 261.777 82.3869 261.777C82.6673 261.777 82.8916 261.805 83.0598 261.861L82.7655 261.483ZM9.71641 241.735C9.85664 241.595 10.1791 241.609 10.6837 241.777C11.2164 241.861 11.4268 241.791 11.3147 241.567C11.2306 241.539 11.1745 241.567 11.1464 241.651C10.9501 241.679 10.6277 241.665 10.1791 241.609C9.75855 241.468 9.60432 241.51 9.71641 241.735ZM125.367 273.314C125.255 273.09 125.002 273.006 124.61 273.062C124.47 273.202 124.568 273.328 124.904 273.441C125.325 273.581 125.479 273.539 125.367 273.314ZM217.042 312.037C217.491 312.093 217.617 311.995 217.421 311.742C217.224 311.49 216.944 311.35 216.58 311.321C216.523 311.49 216.621 311.616 216.874 311.7C217.126 311.784 217.182 311.896 217.042 312.037ZM85.0779 264.217C85.1059 264.414 85.26 264.512 85.5404 264.512C85.9049 264.54 86.1713 264.582 86.3395 264.638C86.2835 264.526 86.1573 264.484 85.961 264.512C85.8769 264.484 85.8629 264.386 85.9191 264.218C85.4985 264.077 85.2742 264.049 85.2461 264.133C85.3022 264.245 85.2461 264.273 85.0779 264.217ZM219.439 313.257C219.944 313.425 220.21 313.468 220.238 313.383C220.294 313.215 220.574 313.215 221.079 313.384C221.107 313.58 220.855 313.636 220.322 313.552C219.873 313.496 219.579 313.397 219.439 313.257ZM186.092 296.381C186.597 296.55 187.073 296.802 187.522 297.139L186.26 296.718L186.302 296.592C186.302 296.592 186.232 296.522 186.092 296.381ZM82.3443 263.586C82.5125 263.642 82.6807 263.698 82.8489 263.754C83.1293 263.754 83.3957 263.796 83.648 263.88C83.5639 263.852 83.5359 263.796 83.5639 263.712L82.3023 263.291C82.2743 263.375 82.2602 263.417 82.2602 263.417C82.3443 263.445 82.3724 263.502 82.3443 263.586ZM181.507 297.515C181.928 297.656 182.138 297.726 182.138 297.726C182.166 297.642 182.166 297.502 182.138 297.305L181.507 297.095C181.479 297.179 181.451 297.263 181.423 297.347C181.507 297.375 181.535 297.431 181.507 297.515ZM204.974 303.663C204.89 303.635 204.792 303.649 204.679 303.705C204.679 303.705 204.637 303.691 204.553 303.663L204.511 303.789L204.89 303.916C205.03 304.056 205.24 304.126 205.52 304.126C205.801 304.126 205.871 304.056 205.731 303.916C205.422 303.719 205.254 303.663 205.226 303.747C205.198 303.832 205.086 303.888 204.89 303.916L204.974 303.663ZM184.578 296.297C184.522 296.185 184.508 296.086 184.536 296.002C184.648 295.946 184.872 295.974 185.209 296.087C185.153 296.255 185.167 296.353 185.251 296.381C185.054 296.409 184.83 296.381 184.578 296.297ZM238.026 321.843C238.082 321.674 237.886 321.562 237.437 321.506C237.073 321.478 236.975 321.352 237.143 321.127L237.774 321.338C237.634 321.478 237.732 321.604 238.068 321.717C238.433 321.745 238.419 321.787 238.026 321.843ZM207.749 305.01C207.581 304.954 207.343 304.828 207.034 304.631C206.726 304.435 206.656 304.365 206.824 304.421C207.02 304.393 207.147 304.435 207.203 304.547C207.371 304.603 207.539 304.659 207.707 304.716C207.707 304.716 207.721 304.814 207.749 305.01ZM233.106 318.519C232.742 318.49 232.447 318.392 232.223 318.224C232.111 318 232.153 317.873 232.349 317.845C232.49 317.986 232.644 318.084 232.812 318.14C233.064 318.224 233.162 318.35 233.106 318.519ZM225.242 314.773C225.102 314.913 225.074 314.997 225.158 315.025C225.326 315.081 225.312 315.123 225.116 315.151C225.088 314.955 225.018 314.885 224.906 314.941C224.878 315.025 224.78 315.039 224.612 314.983C224.555 314.871 224.541 314.773 224.57 314.689L224.696 314.731C224.78 314.759 224.822 314.773 224.822 314.773C224.934 314.717 225.074 314.717 225.242 314.773ZM161.068 292.378C160.928 292.518 161.068 292.658 161.489 292.799C162.022 292.883 162.26 292.869 162.204 292.757C162.26 292.589 162.106 292.49 161.741 292.462C161.461 292.462 161.237 292.434 161.068 292.378ZM96.0109 270.95C96.039 270.866 96.1792 270.866 96.4315 270.95C96.7119 270.95 96.8381 270.992 96.81 271.077C96.6418 271.02 96.5296 271.076 96.4735 271.245C96.5295 271.357 96.3893 271.357 96.0529 271.245C95.9969 271.132 95.9829 271.034 96.0109 270.95ZM137.057 281.562C137 281.73 137.099 281.856 137.351 281.94C137.715 281.968 137.982 282.01 138.15 282.067L138.234 281.814C137.954 281.814 137.561 281.73 137.057 281.562ZM198.034 303.871C198.174 303.731 198.16 303.633 197.992 303.577C197.824 303.521 197.712 303.437 197.656 303.325C197.375 303.324 197.291 303.437 197.403 303.661C197.543 303.801 197.754 303.871 198.034 303.871ZM188.11 299.578C188.53 299.719 188.741 299.649 188.741 299.368C188.488 299.284 188.264 299.256 188.068 299.284C188.068 299.284 188.082 299.382 188.11 299.578ZM80.6201 262.87C80.6762 262.982 80.8864 263.052 81.2509 263.081C81.6154 263.109 81.8678 263.193 82.0079 263.333C81.9799 263.137 81.8257 263.039 81.5454 263.039C81.3771 262.982 81.3211 262.87 81.3772 262.702C81.1809 262.73 81.0267 262.772 80.9145 262.828C80.9145 262.828 80.8164 262.842 80.6201 262.87ZM133.229 282.107C133.594 282.135 133.552 282.121 133.103 282.065C132.766 281.953 132.71 281.841 132.935 281.728C132.767 281.672 132.626 281.672 132.514 281.728C132.43 281.7 132.304 281.658 132.136 281.602C131.995 281.742 132.108 281.826 132.472 281.855C132.837 281.883 133.089 281.967 133.229 282.107ZM192.062 302.86C192.286 303.028 192.469 303.183 192.609 303.323C192.777 303.379 193.029 303.463 193.366 303.576C193.226 303.435 193.085 303.295 192.945 303.155C192.805 303.015 192.511 302.916 192.062 302.86ZM39.0287 249.272C39.3651 249.385 39.5894 249.413 39.7016 249.357C39.7297 249.273 39.7016 249.216 39.6175 249.188C39.5334 249.16 39.5054 249.104 39.5335 249.02C39.4494 248.992 39.3512 249.006 39.2391 249.062C39.1549 249.034 39.0708 249.006 38.9867 248.978C39.0708 249.006 39.0848 249.104 39.0287 249.272ZM100.721 272.382C100.805 272.41 101.015 272.48 101.352 272.592C101.688 272.704 101.618 272.774 101.141 272.802C101.141 272.802 100.931 272.732 100.511 272.592C100.567 272.424 100.637 272.353 100.721 272.382ZM64.6818 257.271C64.9621 257.552 65.3265 257.72 65.7751 257.776C66.3359 257.777 66.8266 257.847 67.2471 257.987C67.0228 257.819 66.6444 257.693 66.1116 257.608C65.5789 257.524 65.1023 257.412 64.6818 257.271ZM181.508 294.571C181.34 294.515 181.116 294.487 180.835 294.487C180.555 294.487 180.443 294.403 180.499 294.235C180.611 294.179 180.793 294.193 181.046 294.277C181.326 294.277 181.48 294.375 181.508 294.571ZM182.558 300.67C182.726 300.726 182.81 300.754 182.81 300.754C182.922 300.698 183.062 300.698 183.231 300.754C183.203 300.839 183.174 300.923 183.146 301.007C183.231 301.035 183.259 301.091 183.23 301.175L182.852 301.049C182.684 300.712 182.586 300.586 182.558 300.67ZM221.121 314.099C221.149 314.015 221.121 313.959 221.037 313.93C221.065 313.846 221.093 313.762 221.121 313.678L221.752 313.889C221.864 314.113 221.836 314.197 221.668 314.141C221.499 314.085 221.317 314.071 221.121 314.099ZM152.448 288.38C152.364 288.632 152.644 288.772 153.289 288.801C153.149 288.66 153.037 288.576 152.952 288.548C152.98 288.464 152.812 288.408 152.448 288.38ZM176.083 294.023C176.111 294.219 176.293 294.373 176.629 294.486C177.078 294.542 177.456 294.668 177.765 294.865C177.653 294.64 177.372 294.5 176.924 294.444C176.503 294.303 176.223 294.163 176.083 294.023ZM145.553 280.471C144.403 280.274 143.983 280.134 144.291 280.05C144.684 279.994 145.188 280.162 145.805 280.555C145.861 280.667 145.833 280.751 145.721 280.807C145.637 280.779 145.581 280.667 145.553 280.471ZM232.349 318.687C231.704 318.658 231.424 318.518 231.508 318.266C231.873 318.294 232.041 318.35 232.013 318.434C232.097 318.462 232.209 318.546 232.349 318.687ZM51.1827 251.926C51.2948 252.15 51.6593 252.318 52.2761 252.431C52.3322 252.263 52.178 252.164 51.8135 252.136C51.5612 252.052 51.3509 251.982 51.1827 251.926ZM208.548 306.819C208.38 306.482 208.282 306.356 208.254 306.44C208.422 306.496 208.506 306.524 208.506 306.524C208.618 306.468 208.758 306.468 208.926 306.524C208.898 306.609 208.912 306.707 208.968 306.819C208.856 306.875 208.716 306.875 208.548 306.819ZM97.231 269.815C97.3712 269.675 97.2591 269.591 96.8946 269.562C96.6142 269.562 96.5021 269.478 96.5582 269.31C96.4741 269.282 96.418 269.31 96.39 269.394L96.3479 269.52L97.231 269.815ZM192.903 302.44C192.707 302.468 192.595 302.524 192.567 302.608C192.651 302.636 192.777 302.678 192.945 302.734C193.114 302.79 193.24 302.832 193.324 302.861C193.492 302.917 193.52 302.973 193.408 303.029C193.492 303.057 193.562 302.987 193.618 302.819C193.198 302.678 192.96 302.552 192.903 302.44ZM116.661 272.513C116.577 272.485 116.563 272.386 116.619 272.218L117.25 272.429C117.25 272.429 117.264 272.527 117.292 272.723L116.661 272.513ZM104.885 272.509C104.773 272.285 104.843 272.215 105.095 272.299C105.095 272.299 104.801 272.201 104.212 272.004C104.296 272.032 104.394 272.158 104.506 272.383L104.885 272.509ZM134.828 278.575C134.8 278.659 134.926 278.701 135.207 278.701C135.571 278.729 135.641 278.799 135.417 278.911C135.221 278.939 134.954 278.897 134.618 278.785C134.674 278.617 134.744 278.547 134.828 278.575ZM52.6546 252.557C52.8228 252.613 52.9489 252.655 53.033 252.683C53.2293 252.655 53.4116 252.67 53.5798 252.726L53.4957 252.557L52.7388 252.305L52.6546 252.557ZM156.444 286.488C156.332 286.544 156.262 286.614 156.234 286.699C155.981 286.614 155.799 286.6 155.687 286.656C155.631 286.544 155.631 286.404 155.687 286.236C155.687 286.236 155.855 286.292 156.192 286.404L156.444 286.488ZM173.726 297.723C173.446 297.723 173.292 297.625 173.264 297.429C173.236 297.232 173.39 297.19 173.726 297.303C173.783 297.415 173.782 297.555 173.726 297.723ZM116.535 272.05L116.619 271.798L117.124 271.966C117.208 271.994 117.222 272.092 117.166 272.26L116.535 272.05ZM165.065 289.225C165.345 289.225 165.542 289.337 165.654 289.561C165.794 289.702 165.724 289.772 165.443 289.772C165.584 289.632 165.514 289.561 165.233 289.561C164.981 289.477 164.925 289.365 165.065 289.225ZM70.4 262.825L70.3579 262.951C70.2457 263.007 70.0214 262.979 69.685 262.867L69.7692 262.614L70.4 262.825ZM244.376 325.924C244.347 326.008 244.361 326.107 244.417 326.219L243.787 326.008C243.703 325.98 243.675 325.924 243.703 325.84C243.899 325.812 244.123 325.84 244.376 325.924ZM152.869 285.856C152.589 285.856 152.421 285.8 152.364 285.688C152.393 285.604 152.322 285.534 152.154 285.478C152.351 285.45 152.575 285.478 152.827 285.562C152.883 285.674 152.897 285.772 152.869 285.856ZM204.258 306.229C203.978 306.228 203.823 306.13 203.795 305.934C203.768 305.738 203.922 305.696 204.258 305.808C204.23 305.892 204.202 305.976 204.174 306.06C204.258 306.088 204.286 306.144 204.258 306.229ZM236.008 319.907C235.755 319.823 235.531 319.795 235.335 319.823C235.419 319.571 235.503 319.459 235.587 319.487C235.559 319.571 235.629 319.641 235.798 319.697C235.994 319.669 236.064 319.739 236.008 319.907ZM214.646 308.293C214.085 308.293 213.805 308.152 213.805 307.872C214.309 308.04 214.59 308.181 214.646 308.293ZM106.4 267.967C106.737 268.079 106.933 268.192 106.989 268.304C107.073 268.332 107.185 268.416 107.325 268.556C106.737 268.36 106.428 268.163 106.4 267.967ZM158.713 291.452C158.713 291.452 158.742 291.508 158.798 291.62C158.629 291.564 158.489 291.564 158.377 291.62C158.293 291.592 158.209 291.564 158.125 291.536C158.069 291.424 158.055 291.326 158.083 291.241L158.713 291.452ZM184.493 298.652C184.577 298.68 184.647 298.61 184.703 298.442L184.073 298.231C184.016 298.399 184.072 298.512 184.241 298.568C184.437 298.54 184.521 298.568 184.493 298.652ZM241.012 322.559C240.844 322.503 240.703 322.502 240.591 322.558C240.591 322.558 240.507 322.53 240.339 322.474C240.367 322.39 240.353 322.292 240.297 322.18L240.928 322.39L241.012 322.559ZM109.006 274.866C109.174 274.922 109.258 274.95 109.258 274.95C109.37 274.894 109.51 274.894 109.679 274.95C109.651 275.034 109.665 275.132 109.721 275.244L109.09 275.034L109.006 274.866ZM160.355 288.214C160.383 288.13 160.355 288.074 160.271 288.046C160.187 288.018 160.159 287.962 160.187 287.877L160.691 288.046C160.775 288.074 160.789 288.172 160.733 288.34L160.355 288.214ZM156.571 284.848C156.515 284.736 156.402 284.652 156.234 284.596C156.487 284.68 156.725 284.666 156.949 284.554C156.949 284.834 156.823 284.932 156.571 284.848ZM41.8046 248.937C41.4122 248.712 41.2299 248.698 41.2579 248.895C41.2859 249.091 41.4401 249.189 41.7205 249.189L41.8046 248.937ZM206.572 304.757C206.375 304.785 206.151 304.757 205.899 304.673C205.759 304.533 205.829 304.463 206.109 304.463C206.137 304.659 206.249 304.743 206.446 304.715C206.67 304.603 206.796 304.645 206.824 304.841L206.572 304.757ZM92.1437 264.051C91.9755 263.995 91.9054 264.065 91.9334 264.262C91.9894 264.374 92.1576 264.43 92.438 264.43C92.4661 264.346 92.4381 264.29 92.354 264.262C92.354 264.262 92.368 264.22 92.3961 264.136C92.2839 264.192 92.1998 264.163 92.1437 264.051ZM187.773 300.167C187.717 300.055 187.703 299.957 187.731 299.873L187.353 299.746L187.268 299.999L187.773 300.167ZM213.132 307.788L213.216 307.535L213.595 307.661C213.566 307.746 213.58 307.844 213.636 307.956L213.132 307.788ZM90.5878 263.252C90.3915 263.28 90.3215 263.21 90.3776 263.041C90.4618 262.789 90.5599 262.775 90.672 262.999C90.6159 263.168 90.6158 263.308 90.6719 263.42C90.8401 263.476 90.8121 263.42 90.5878 263.252ZM73.2188 259.84L73.303 259.587L72.7984 259.419C72.8544 259.531 72.8684 259.629 72.8403 259.713L73.2188 259.84ZM241.643 323.19C241.671 323.106 241.657 323.007 241.601 322.895L242.105 323.064L242.021 323.316L241.643 323.19ZM131.044 276.05C131.072 275.966 131.058 275.868 131.002 275.756L131.507 275.924L131.422 276.176L131.044 276.05ZM112.625 267.38L112.709 267.128L113.088 267.254C113.06 267.338 113.074 267.437 113.13 267.549L112.625 267.38ZM98.9142 266.871L98.83 267.124L99.3347 267.292C99.2786 267.18 99.2647 267.082 99.2927 266.998L98.9142 266.871ZM194.965 298.781C194.994 298.697 194.98 298.599 194.923 298.487L195.428 298.655L195.344 298.908L194.965 298.781ZM135.375 278.196C135.347 278.28 135.333 278.323 135.333 278.323C135.417 278.351 135.445 278.407 135.417 278.491L135.039 278.364C134.983 278.252 134.969 278.154 134.997 278.07L135.375 278.196ZM95.6749 269.436C95.703 269.352 95.689 269.254 95.633 269.141C95.5208 269.197 95.3386 269.183 95.0862 269.099L95.0441 269.225L95.6749 269.436ZM147.15 282.406C147.206 282.518 147.22 282.616 147.192 282.7L146.814 282.574C146.842 282.49 146.814 282.434 146.73 282.406C146.73 282.406 146.744 282.364 146.772 282.28L147.15 282.406ZM220.154 311.953C220.042 311.729 220.154 311.673 220.491 311.785C220.827 311.898 220.981 311.996 220.953 312.08C220.785 312.024 220.645 312.024 220.533 312.08C220.449 312.052 220.323 312.01 220.154 311.953ZM135.88 278.785C135.908 278.701 135.88 278.645 135.796 278.617C135.796 278.617 135.81 278.575 135.838 278.491L136.216 278.617C136.272 278.729 136.286 278.827 136.258 278.912L135.88 278.785ZM234.452 319.108C234.2 319.024 233.975 318.996 233.779 319.023L233.863 318.771L234.494 318.982L234.452 319.108ZM236.176 320.244C236.064 320.02 236.092 319.935 236.26 319.992C236.541 319.992 236.751 320.062 236.891 320.202C236.639 320.118 236.498 320.118 236.47 320.202C236.442 320.286 236.344 320.3 236.176 320.244ZM155.602 288.591C155.63 288.507 155.602 288.451 155.518 288.423C155.518 288.423 155.532 288.381 155.56 288.297C155.448 288.353 155.224 288.325 154.887 288.212L154.971 288.381L155.602 288.591ZM94.3712 269.141C94.5395 269.197 94.7217 269.211 94.918 269.183C94.8339 269.155 94.8059 269.099 94.8339 269.015L94.4554 268.889L94.3712 269.141ZM200.136 306.396C200.136 306.396 200.108 306.339 200.052 306.227C200.389 306.34 200.613 306.368 200.725 306.312C200.697 306.396 200.683 306.438 200.683 306.438C200.767 306.466 200.795 306.522 200.767 306.606L200.136 306.396ZM17.0347 241.232C16.9506 241.204 16.9226 241.148 16.9506 241.064C17.0628 241.008 17.203 241.008 17.3712 241.064C17.3432 241.148 17.3291 241.19 17.3291 241.19C17.4132 241.218 17.4413 241.275 17.4132 241.359L17.0347 241.232ZM63.2948 254.285C63.2387 254.173 63.2247 254.075 63.2528 253.99C63.0846 253.934 62.9444 253.934 62.8322 253.99L62.7901 254.116L63.2948 254.285ZM70.6545 255.759C70.5704 255.731 70.4723 255.745 70.3601 255.801C70.3601 255.801 70.318 255.787 70.2339 255.759C70.2339 255.759 70.262 255.815 70.318 255.927L70.6965 256.054C70.7246 255.969 70.7106 255.871 70.6545 255.759ZM228.354 317.634C228.774 317.774 228.971 317.886 228.943 317.971C228.662 317.97 228.466 317.858 228.354 317.634ZM69.2225 262.152C69.3067 262.18 69.3487 262.194 69.3487 262.194C69.4609 262.138 69.559 262.124 69.6431 262.152C69.6992 262.264 69.7132 262.362 69.6851 262.446L69.3066 262.32L69.2225 262.152ZM234.073 319.823C234.101 319.739 234.087 319.64 234.031 319.528L234.536 319.697L234.494 319.823C234.41 319.795 234.311 319.809 234.199 319.865C234.199 319.865 234.157 319.851 234.073 319.823ZM239.708 322.684L239.75 322.558C239.834 322.586 239.876 322.6 239.876 322.6C239.988 322.544 240.087 322.53 240.171 322.558C240.143 322.642 240.157 322.741 240.213 322.853L239.708 322.684ZM109.008 266.033C108.924 266.005 108.826 266.019 108.714 266.075C108.714 266.075 108.672 266.061 108.588 266.033C108.616 265.949 108.602 265.851 108.546 265.739L109.051 265.907L109.008 266.033ZM216.874 310.018C216.706 309.962 216.566 309.962 216.454 310.018C216.482 309.934 216.454 309.877 216.37 309.849C216.37 309.849 216.384 309.807 216.412 309.723L216.916 309.892L216.874 310.018ZM204.636 308.878C204.832 309.131 205.07 309.257 205.351 309.257C205.659 309.173 205.505 309.075 204.888 308.963C204.944 308.794 204.916 308.738 204.804 308.794C204.72 308.766 204.664 308.794 204.636 308.878ZM97.0223 264.558C96.9943 264.642 97.0083 264.74 97.0643 264.852C97.1765 264.796 97.3167 264.796 97.4849 264.852L97.4008 264.684L97.0223 264.558ZM239.162 320.96C238.994 320.904 238.853 320.904 238.741 320.96C238.769 320.876 238.755 320.777 238.699 320.665L239.204 320.834L239.162 320.96ZM157.284 289.012L156.906 288.886L156.864 289.012L156.948 289.18L157.074 289.222L157.116 289.096L157.242 289.138L157.284 289.012ZM179.111 293.351L179.153 293.225C179.237 293.253 179.279 293.267 179.279 293.267C179.392 293.211 179.49 293.197 179.574 293.225L179.49 293.477L179.111 293.351ZM235.629 320.202C235.573 320.37 235.629 320.482 235.797 320.538C235.994 320.51 236.078 320.538 236.05 320.622C235.853 320.65 235.685 320.594 235.545 320.454C235.433 320.23 235.461 320.146 235.629 320.202ZM44.9586 250.41L44.4539 250.241L44.538 250.41L44.9165 250.536L44.9586 250.41ZM156.654 286.278L156.276 286.152L156.192 285.984L156.696 286.152L156.654 286.278ZM226.083 316.456C226.055 316.54 226.209 316.638 226.546 316.75L226.588 316.624L226.083 316.456ZM226.336 315.699C226.055 315.698 225.901 315.6 225.873 315.404C225.845 315.208 225.887 315.222 225.999 315.446C226.055 315.558 226.167 315.642 226.336 315.699C226.532 315.671 226.532 315.671 226.336 315.699ZM170.7 292.928L170.742 292.802L170.237 292.633C170.321 292.661 170.349 292.717 170.321 292.801L170.7 292.928ZM79.4436 259.253L79.5277 259.421L79.1492 259.295C79.0651 259.267 79.0371 259.211 79.0651 259.126L79.4436 259.253ZM147.402 285.434C147.402 285.434 147.374 285.378 147.318 285.266L146.939 285.14L147.023 285.308L147.402 285.434ZM70.7365 262.657L70.358 262.53C70.358 262.53 70.33 262.474 70.2739 262.362L70.7786 262.531L70.7365 262.657ZM6.52013 241.229L6.14165 241.103L6.05758 240.935L6.43607 241.061L6.52013 241.229ZM206.74 305.094C206.768 305.01 206.74 304.954 206.656 304.926C206.74 304.954 206.81 305.024 206.866 305.136C207.034 305.192 206.992 305.178 206.74 305.094ZM129.571 279.204C129.515 279.092 129.319 278.98 128.982 278.867L129.571 279.204ZM186.092 296.381C185.755 296.269 185.587 296.213 185.587 296.213L186.092 296.381ZM105.602 264.897C105.686 264.925 105.714 264.981 105.686 265.065C105.686 265.065 105.728 265.079 105.812 265.107C105.756 264.995 105.686 264.925 105.602 264.897ZM155.14 286.194C155.14 286.194 155.182 286.208 155.266 286.236L155.14 286.194ZM206.698 304.799L206.656 304.926L206.572 304.757L206.698 304.799Z" fill="#1A1423"/>
<path d="M60.2254 217.989C62.5795 218.775 64.9336 219.56 67.0869 219.968C69.4411 220.753 71.8886 221.259 73.9485 221.946C76.3026 222.731 78.4699 224.077 80.5297 224.764L87.2978 227.023C89.9462 227.906 92.4732 227.194 94.706 226.383C96.9387 225.572 98.6763 224.285 100.012 222.241L103.044 216.096L106.276 210.329C107.612 208.285 108.36 206.045 109.308 204.183C110.644 202.14 112.769 200.671 113.811 198.529C115.054 196.765 115.507 194.427 116.843 192.384C117.884 190.242 119.421 188.576 120.463 186.435L123.495 180.289C124.443 178.428 125.485 176.286 126.821 174.242C127.769 172.38 128.516 170.14 129.558 167.999C130.506 166.137 132.632 164.668 133.967 162.624C135.584 159.741 136.611 156.661 138.228 153.777C139.269 151.635 141.301 150.446 143.067 151.036C145.127 151.723 146.332 153.992 145.972 156.05C145.785 156.61 146.28 157.086 146.187 157.366C146.028 159.803 144.893 162.225 144.734 164.661C144.281 166.999 144.416 169.534 143.963 171.872C143.711 174.588 142.963 176.828 142.51 179.166C142.258 181.883 141.51 184.123 140.964 186.741L140.394 194.33C139.94 196.668 140.076 199.203 139.823 201.919L138.371 209.213C138.305 211.37 137.651 213.33 137.291 215.388C136.838 217.726 137.067 219.981 136.707 222.039C136.347 224.097 135.693 226.057 135.24 228.395C134.881 230.453 135.109 232.708 134.75 234.766C134.39 236.824 135.207 239.275 136.305 240.886C137.603 242.875 139.383 244.402 141.737 245.188L148.799 247.544C151.153 248.33 153.694 248.555 156.049 249.341L155.955 249.621C158.309 250.406 160.57 251.472 162.924 252.258C165.278 253.043 167.913 252.989 170.267 253.774C172.621 254.56 174.774 254.967 176.619 254.338C178.852 253.527 180.59 252.24 181.631 250.098C182.874 248.335 183.621 246.095 184.57 244.233C185.906 242.189 187.148 240.426 188.19 238.284C189.138 236.422 190.768 234.477 191.81 232.335C193.146 230.291 194.094 228.429 195.136 226.288C196.472 224.244 196.925 221.906 198.261 219.862L201.293 213.717C202.334 211.575 203.965 209.63 205.3 207.586C206.249 205.724 207.585 203.681 208.921 201.637C209.962 199.496 210.911 197.634 212.247 195.59C213.288 193.448 214.036 191.208 215.077 189.067C216.119 186.925 217.455 184.881 218.698 183.118C219.739 180.976 221.37 179.03 222.705 176.987C223.747 174.845 224.495 172.605 225.737 170.842C226.779 168.7 228.409 166.754 229.745 164.711C230.693 162.849 231.441 160.609 232.777 158.565C233.818 156.424 234.566 154.184 235.514 152.322C236.556 150.18 237.892 148.137 238.84 146.275C240.176 144.231 241.713 142.566 242.754 140.424L248.818 128.133C250.06 126.37 251.102 124.228 252.144 122.086C253.48 120.043 255.404 118.195 256.446 116.054C257.875 113.73 258.623 111.49 259.758 109.068C261.094 107.025 262.724 105.079 264.153 102.756C265.195 100.614 265.447 97.8976 266.783 95.854C267.919 93.4322 269.254 91.3886 270.39 88.9669C271.632 87.2033 273.557 85.3561 274.505 83.4943C275.841 81.4507 276.588 79.2107 277.924 77.1671C279.246 74.1854 278.91 71.2726 277.705 69.0035C276.5 66.7344 274.706 64.2689 271.47 63.1888L263.23 60.4395C260.582 59.5558 258.027 58.3921 255.378 57.5084C252.73 56.6246 249.694 55.9227 247.045 55.039C244.986 54.3517 242.552 54.7843 240.413 55.3152C238.474 56.2242 236.737 57.5114 235.494 59.275C233.971 61.8786 232.944 64.9586 231.421 67.5621C230.379 69.7039 228.254 71.1729 227.305 73.0347C226.264 75.1765 225.61 77.1365 224.568 79.2782C223.325 81.0418 222.872 83.38 221.831 85.5218C220.588 87.2854 219.346 89.049 218.304 91.1907C217.061 92.9543 215.431 94.8997 214.483 96.7615C213.441 98.9033 212.6 101.423 211.559 103.565C210.223 105.609 208.686 107.274 207.551 109.696C206.215 111.739 205.173 113.881 203.837 115.925C202.795 118.067 202.048 120.306 200.712 122.35C199.189 124.954 198.549 127.852 197.026 130.455C195.209 132.961 191.304 132.902 189.217 130.339C188.32 129.106 189.081 127.804 189.455 126.684C189.707 123.968 189.572 121.433 190.025 119.095C190.277 116.379 190.73 114.041 190.889 111.604C191.436 108.986 192.183 106.746 192.436 104.03C192.795 101.972 192.272 99.619 192.632 97.5608C192.791 95.1245 193.151 93.0663 193.511 91.0082C193.669 88.5718 194.711 86.43 195.071 84.3719C195.431 82.3137 194.908 79.961 195.066 77.5246C195.52 75.1865 196.36 72.6665 196.519 70.2302C196.973 67.892 197.813 65.372 197.972 62.9357C198.519 60.3175 198.383 57.783 198.542 55.3466C199.089 52.7285 200.224 50.3067 200.383 47.8704C200.743 45.8122 200.313 43.1795 198.921 41.4704C197.623 39.4812 195.642 37.5757 193.583 36.8884C191.523 36.2011 189.276 36.0737 187.216 35.3864L180.742 33.2262C178.682 32.5389 176.622 31.8515 174.656 30.8842C172.89 30.2951 171.232 30.3641 169.373 30.055C167.127 29.9276 165.375 30.2767 163.731 31.2839C162.18 32.0111 161.031 33.4947 160.083 35.3565C158.947 37.7783 156.729 39.5273 155.687 41.6691C154.258 43.9926 153.711 46.6108 152.669 48.7526C151.24 51.0762 150.105 53.4979 149.063 55.6397L144.868 62.3305C143.92 64.1922 142.878 66.334 141.542 68.3776C140.594 70.2394 138.964 72.1848 137.721 73.9484C136.68 76.0902 135.932 78.3301 134.891 80.4719L131.07 86.0427C130.028 88.1845 129.575 90.5226 128.239 92.5662C127.29 94.428 125.955 96.4716 124.913 98.6134L121.881 104.759C120.545 106.802 118.593 106.773 116.439 106.366C114.38 105.678 113.189 104.348 113.347 101.911C113.801 99.573 114.641 97.0531 114.8 94.6167C115.254 92.2785 115.118 89.744 115.277 87.3077C115.73 84.9695 116.865 82.5477 117.319 80.2096C117.477 77.7732 117.048 75.1405 117.501 72.8023C117.66 70.366 118.206 67.7478 118.365 65.3115C118.819 62.9733 119.178 60.9152 119.337 58.4788C119.79 56.1406 120.538 53.9007 120.897 51.8425C121.351 49.5044 121.51 47.068 121.869 45.0098C122.322 42.6717 122.094 40.4171 122.253 37.9808L123.519 31.2463C123.678 28.81 124.131 26.4718 124.49 24.4136C124.93 21.1373 124.112 18.6864 122.814 16.6973C121.515 14.7081 119.736 13.1808 116.298 11.7225C113.65 10.8388 110.8 9.57693 108.152 8.69322C105.209 7.71132 102.08 7.2894 99.4315 6.40569C97.0773 5.62016 94.3355 5.01644 91.9814 4.23092C89.333 3.34721 86.6986 3.40168 84.4798 5.1507C82.4479 6.33972 81.4062 8.48151 80.7662 11.3797C80.7007 13.536 79.3648 15.5796 79.005 17.6378C78.5519 19.9759 78.4864 22.1323 78.1267 24.1904C77.7669 26.2486 78.29 28.6013 77.9302 30.6595C77.4771 32.9977 77.4116 35.154 77.0519 37.2122C76.6921 39.2703 75.9447 41.5103 75.585 43.5685C75.5195 45.7248 75.7483 47.9794 75.3886 50.0375C75.2297 52.4739 73.8003 54.7975 73.7348 56.9538C73.2816 59.292 73.1227 61.7283 72.6696 64.0665C72.3098 66.1246 72.1509 68.561 71.6978 70.8991C71.5389 73.3355 71.7677 75.59 71.6088 78.0264C71.1556 80.3645 70.4082 82.6045 69.955 84.9427C69.5019 87.2808 69.7307 89.5354 69.2775 91.8735C69.1186 94.3099 68.6654 96.648 68.2123 98.9862C67.8525 101.044 67.7871 103.201 67.3339 105.539C67.2684 107.695 67.1095 110.132 66.7498 112.19C66.2966 114.528 65.5492 116.768 65.1895 118.826C65.0306 121.262 64.0823 123.124 63.9234 125.561C63.5637 127.619 63.699 130.153 63.3393 132.211C62.8861 134.55 62.5264 136.608 62.3675 139.044C62.0077 141.102 61.9423 143.259 61.4891 145.597C61.4236 147.753 60.6762 149.993 60.5173 152.429C60.0642 154.768 60.1995 157.302 59.6529 159.92C59.494 162.357 58.6532 164.877 58.2 167.215C57.9477 169.931 57.7888 172.367 57.2422 174.986C57.0833 177.422 57.2187 179.956 56.6721 182.575C56.4197 185.291 55.5789 187.811 55.3266 190.527C54.78 193.145 54.8219 195.96 54.2753 198.578C54.023 201.294 54.0649 204.109 53.5183 206.727C53.266 209.443 53.1071 211.88 54.2047 213.491C55.5032 215.48 57.577 217.105 60.2254 217.989Z" fill="black"/>
</svg>
